<svg width="144" height="45" viewBox="0 0 144 45" fill="none" xmlns="http://www.w3.org/2000/svg">
<g clip-path="url(#clip0_87_2476)">
<path d="M9.84667 38.9723C0.307967 33.5392 0.601481 34.1192 0.307966 33.5392C-0.00980858 32.9113 0.93433 29.8944 0.244639 22.0242L0.398272 10.5582C0.931848 9.99469 5.16585 7.57562 9.72551 4.99873C16.4255 1.21223 17.6473 0.570015 18.7877 0.554415C19.9683 0.538215 21.2903 1.42996 28.2263 5.37801C32.7859 7.97343 37.524 10.2699 37.872 10.5692C38.2439 11.0319 37.8655 11.0228 32.7886 14.2647C29.7886 15.9647 27.5555 17.2469 27.1185 17.5728C26.8172 17.7974 24.6903 18.5878 23.0885 19.461C21.4213 20.3697 19.711 21.0484 19.0882 21.0484C18.4299 21.0484 16.8014 20.3611 14.965 19.3081C13.2956 18.3509 10.5983 16.8875 10.3569 16.9801C8.92447 17.5298 8.65765 24.9352 10.3368 27.7488C11.0257 29.3977 12.599 30.1522 14.3076 31.057C15.4024 31.6368 16.2106 32.3915 18.229 32.3978C20.4857 32.4048 21.9375 32.1638 23.3382 31.3404C24.2415 30.8094 25.7759 30.2012 26.4014 29.4114C27.1867 28.4199 27.7024 27.7542 27.7024 27.7542C28.9113 28.2178 36.3413 33.7919 36.7307 34.2611C37.2374 34.8716 37.5585 33.7483 36.7307 34.2611C36.389 34.4728 32.7084 36.829 28.2052 39.3818C21.662 43.0909 19.7489 44.0224 18.6802 44.0196C17.6093 44.0166 15.0306 41.925 9.84667 38.9723H9.84667Z" fill="#fff"/>
<path d="M9.5565 39.5499C5.01416 36.9449 1.00573 34.5492 0.648857 34.2263C0.0445281 33.6793 0 32.8606 0 22.2959C0 13.7458 0.108583 10.8191 0.440971 10.4103C0.683505 10.1119 2.94569 8.70868 5.46806 7.29193C7.99042 5.87519 11.8004 3.72853 13.9347 2.52158C16.069 1.31464 18.2453 0.225544 18.7709 0.101364C19.4982 -0.0704757 20.4253 1.18023 22.6515 2.35651C29.2525 5.84439 37.5633 10.2153 37.6666 10.7236C37.7907 11.3342 37.3637 11.7418 31.2877 15.1859L27.1546 17.5476L25.4121 16.011C23.6205 14.4002 20.9377 13.2873 18.8463 13.2873C15.6748 13.2873 10.9096 16.4563 9.71262 19.3614C9.09318 20.8648 9.00069 24.0791 9.53633 25.4879C10.3367 27.7488 12.4774 29.7573 14.3539 30.8074C16.7216 32.1949 20.111 32.358 22.6283 31.2056C23.6709 30.7282 25.2216 29.8535 25.9875 29.0452C26.7535 28.2369 27.4789 27.3984 27.6862 27.3984C28.2627 27.3984 36.4369 32.6086 37.2255 33.3909C37.8345 33.995 38.1903 33.8069 37.736 34.2438C37.4511 34.5179 33.3994 36.8997 28.7321 39.5369C22.2154 43.219 19.9641 44.3265 19.0307 44.309C18.1407 44.2924 15.6043 43.0183 9.5565 39.5499V39.5499Z" fill="#fff"/>
<path d="M17.9582 31.9304C17.8766 31.8488 20.3258 32.6266 23.9456 30.4788C25.1427 29.6887 26.3162 28.568 27.6314 27.3054C30.5991 28.8528 30.6277 28.8565 38.4559 33.7229C38.525 33.9413 34.3363 36.4125 30.3991 38.6501C21.0298 43.9748 19.962 44.3304 19.0807 44.3224C17.2365 39.8967 17.9559 35.984 17.9582 31.9304V31.9304ZM5.38238 14.0418C2.81293 12.5597 0.341991 10.6995 0.340577 10.4796C0.339177 10.2597 2.84662 8.76442 5.70853 7.15671C8.57044 5.54899 12.2636 3.475 14.2421 2.34367C16.4852 1.06108 18.6729 -0.285385 19.2593 0.0528551C22.1555 1.72329 24.4557 2.76014 35.4284 9.14686L37.872 10.5692L37.0807 11.21C36.2359 11.8941 27.6517 16.8152 27.3032 16.8152C27.1891 16.8152 26.5511 16.7567 25.6813 15.9911C21.7375 12.5196 18.1417 12.2343 12.4857 15.9751C11.7099 16.676 11.2529 17.2987 11.0824 17.277C10.9119 17.2554 7.95184 15.524 5.38238 14.0419V14.0418Z" fill="#fff"/>
<path d="M9.25305 39.3915C4.45087 36.6369 0.30081 34.3433 0.40487 33.8473C0.40487 33.8473 2.93354 32.221 5.5376 30.6517L10.6665 27.5608L11.9824 29.0227C13.5956 30.8149 16.6554 31.7448 17.4626 31.8652C19.751 32.0412 19.426 33.2004 19.426 33.2004L19.2534 38.0893C19.1633 40.6396 19.0807 44.3223 19.0807 44.3223C18.555 44.365 18.5676 44.3035 17.8452 44.0057C17.3512 43.7845 14.0552 42.1461 9.25305 39.3915V39.3915ZM25.0882 15.7875C23.809 14.7047 23.113 14.3446 19.9465 13.3644L19.0196 13.2907L19.005 6.58453C19.0071 1.05435 18.7248 0.19031 19.389 0.0866699C28.0136 4.96677 28.2356 5.19294 38.0391 10.6234C38.0747 10.979 37.85 11.3057 37.3187 11.5983C36.3758 12.3618 27.5307 17.5603 27.1545 17.5476C27.0107 17.5426 26.2133 16.8023 25.4305 16.0631L25.0882 15.7875Z" fill="#fff"/>
<path d="M92.6592 33.8502C90.5284 33.5455 88.636 32.6236 87.0152 31.1007C85.6624 29.8295 84.7049 28.355 84.1674 26.7152C83.7681 25.497 83.7403 25.2587 83.7403 23.0575C83.7403 20.8564 83.7681 20.618 84.1674 19.3999C85.253 16.0876 88.1959 13.3336 91.6134 12.4317C92.9224 12.0863 95.8959 12.0862 97.2056 12.4316C98.6336 12.8082 100.191 13.6526 101.22 14.6077L102.135 15.4581L101.218 16.3844L100.301 17.3106L99.6729 16.698C98.2661 15.3252 96.3962 14.5934 94.3069 14.598C92.1086 14.603 90.2405 15.3794 88.6532 16.9482C87.0004 18.5819 86.273 20.4489 86.273 23.0576C86.273 25.6717 86.9916 27.4995 88.681 29.1821C91.7466 32.2353 96.7176 32.2933 99.9036 29.3129L100.833 28.443L101.779 29.4044L102.724 30.3658L101.892 31.1265C99.4257 33.3808 96.1449 34.3487 92.6592 33.8502V33.8502ZM109.576 33.7921C108.174 33.4882 107.103 32.9031 106.107 31.8973C104.568 30.3424 103.975 28.8052 103.975 26.3686C103.975 25.5768 104.074 24.5792 104.201 24.0928C104.801 21.7878 106.481 19.9662 108.77 19.1382C109.998 18.6939 112.509 18.6895 113.724 19.1292C115.465 19.7598 116.976 21.0766 117.746 22.6349C118.318 23.7911 118.54 24.8357 118.54 26.3683C118.54 28.7464 117.904 30.3986 116.413 31.8895C115.372 32.9307 114.339 33.488 112.876 33.7979C111.625 34.0628 110.819 34.0613 109.576 33.7909V33.7921ZM113.197 31.1984C116.958 29.4315 116.919 23.3343 113.134 21.4992C112.119 21.0072 110.366 21.0109 109.35 21.5072C107.387 22.4664 106.335 24.4704 106.519 26.903C106.691 29.1709 108.017 30.9131 110.001 31.4751C110.906 31.7315 112.323 31.6088 113.197 31.1984V31.1984ZM134.938 33.8024C132.331 33.2352 130.157 31.0006 129.596 28.3113C129.37 27.2233 129.397 25.2908 129.656 24.1952C130.204 21.869 131.939 19.8908 134.075 19.156C135.792 18.5651 137.876 18.6478 139.513 19.3716C140.444 19.7834 141.772 20.9737 142.291 21.8617C142.808 22.747 143.247 24.2997 143.359 25.6388L143.456 26.8101H137.77H132.083V27.2249C132.083 28.7441 133.161 30.3516 134.681 31.1003C135.548 31.5267 135.816 31.588 136.785 31.5814C138.2 31.5714 139.023 31.1943 140.03 30.0931C140.434 29.6504 140.765 29.2265 140.765 29.1512C140.765 29.0759 141.298 29.2819 141.948 29.609L143.131 30.2038L142.868 30.6659C142.401 31.4854 141.111 32.6528 140.152 33.1239C138.475 33.9475 136.679 34.1812 134.938 33.8024H134.938ZM140.55 24.198C140.432 23.552 139.909 22.6048 139.416 22.1449C138.722 21.4971 137.691 21.1568 136.424 21.1573C135.163 21.1577 134.514 21.3898 133.583 22.1734C133.145 22.5418 132.23 24.1509 132.23 24.5526C132.23 24.7129 133.019 24.7499 136.44 24.7499H140.651L140.55 24.198ZM76.8973 29.3118L74.0556 25.0442H72.5333H71.0109V29.2383V33.4324H69.6864H68.362V22.9839V12.5355L71.9306 12.5385C73.8934 12.5405 75.9628 12.607 76.5294 12.6872C79.2802 13.0767 81.4862 15.1884 81.9135 17.8411C82.3851 20.7696 80.5509 23.6387 77.5963 24.5943C77.2928 24.6925 77.0445 24.8389 77.0445 24.9196C77.0445 25.0003 78.3105 26.8975 79.8579 29.1354C81.4052 31.3734 82.7037 33.2888 82.7433 33.392C82.7988 33.5367 82.4631 33.5796 81.2771 33.5796H79.739L76.8973 29.3118ZM76.7804 22.3137C79.6063 21.3508 80.1981 17.6313 77.8134 15.8209C76.9092 15.1346 76.3884 15.039 73.5494 15.038L71.0109 15.0375V18.7901V22.5427H73.56C75.4794 22.5427 76.2749 22.4862 76.7804 22.314V22.3137ZM47.7978 33.2484C47.8362 33.1472 49.6082 28.4454 51.7354 22.8L55.603 12.5355L57.0894 12.5375L58.5757 12.5395L62.3202 22.5078C64.3796 27.9903 66.152 32.6913 66.2587 32.9543L66.4528 33.4326H65.0078H63.5628L62.8527 31.4091C62.4621 30.2962 62.0141 29.038 61.857 28.6131L61.5714 27.8405H57.1041H52.6369L52.3478 28.6131C52.1889 29.038 51.7371 30.2954 51.3439 31.4073L50.629 33.4289L49.1785 33.4309C48.0783 33.4329 47.7448 33.3883 47.7978 33.2488V33.2484ZM60.5624 25.266C60.5624 25.1507 57.3057 16.1631 57.1824 15.9381C57.1213 15.8265 57.0356 15.7934 56.992 15.8646C56.9484 15.9357 56.2168 17.9143 55.3663 20.2615C54.5157 22.6088 53.7492 24.7113 53.6629 24.9339L53.506 25.3386H57.0342C58.9747 25.3386 60.5624 25.3059 60.5624 25.2661V25.266ZM120.604 26.295V19.1578H121.855H123.106V20.335C123.106 20.9825 123.156 21.5121 123.216 21.5119C123.277 21.5118 123.459 21.2655 123.621 20.9648C123.979 20.3005 125.153 19.3879 126.039 19.0857C126.768 18.8369 128.485 18.7896 129.046 19.0029L129.413 19.1424L129.027 20.3185L128.641 21.4946L127.456 21.4705C126.008 21.4412 125.172 21.7886 124.296 22.7836C123.307 23.907 123.253 24.2347 123.253 29.1173V33.4323H121.929H120.604V26.295Z" fill="#fff"/>
</g>
<defs>
<clipPath id="clip0_87_2476">
<rect width="143.456" height="44.3346" fill="white"/>
</clipPath>
</defs>
</svg>
