<svg width="392" height="392" viewBox="0 0 392 392" fill="none" xmlns="http://www.w3.org/2000/svg">
<path d="M39.8272 154.785C39.8272 154.785 25.7152 215.09 65.025 267.634C104.335 320.178 172.856 340.601 227.94 358.578C283.024 376.555 334.611 355.795 353.96 309.508C373.309 263.22 334.227 238.289 325.603 177.796C316.979 117.302 323.863 99.9287 283.659 53.9235C243.456 7.91843 160.955 8.98467 105.174 56.2755C49.392 103.566 39.8272 154.785 39.8272 154.785Z" fill="#F88F24"/>
<path opacity="0.7" d="M39.8272 154.785C39.8272 154.785 25.7152 215.09 65.025 267.634C104.335 320.178 172.856 340.601 227.94 358.578C283.024 376.555 334.611 355.795 353.96 309.508C373.309 263.22 334.227 238.289 325.603 177.796C316.979 117.302 323.863 99.9287 283.659 53.9235C243.456 7.91843 160.955 8.98467 105.174 56.2755C49.392 103.566 39.8272 154.785 39.8272 154.785Z" fill="white"/>
<path d="M78.2041 151.312C78.2041 151.312 78.6745 209.618 78.6745 225.008C78.6745 240.398 78.2041 332.628 78.2041 332.628" stroke="#263238" stroke-width="3" stroke-linecap="round" stroke-linejoin="round"/>
<path d="M113.194 166.271L98.7291 154.142L139.317 158.807L103.394 147.141L140.25 140.61H98.7291L130.92 116.353L94.5347 134.55L115.522 98.6272L87.5336 130.818L97.3336 83.6999L79.137 127.549L77.271 78.5725L73.5392 128.482L53.6883 84.3898L67.4789 132.684L37.7888 100.289L63.747 140.148L26.9931 113.923L61.4107 147.141L22.4459 125.856L58.1493 149.94L25.8563 145.73L57.2163 154.605L32.1048 158.799L58.1493 157.874L42.7515 168.137L79.137 158.337L113.194 166.271Z" fill="#F88F24"/>
<path d="M64.2097 210.112C64.2097 210.112 62.8141 222.241 63.7471 226.905C64.7354 232.289 65.2027 237.755 65.1426 243.228C65.1426 249.296 65.613 275.066 65.613 279.292C65.613 283.518 65.1426 319.159 65.1426 322.412V333.608" stroke="#263238" stroke-width="3" stroke-linecap="round" stroke-linejoin="round"/>
<path d="M65.613 274.612C65.613 274.612 67.479 239.042 69.3449 234.416C71.2108 229.79 72.6063 231.147 73.0767 225.549C73.5471 219.951 73.5393 217.623 74.4722 215.757C75.2159 214.092 75.8395 212.376 76.3382 210.622L77.2711 206.89" stroke="#263238" stroke-width="3" stroke-linecap="round" stroke-linejoin="round"/>
<path d="M98.7292 222.248L84.2722 210.12L124.852 214.785L88.937 203.119L125.785 196.588H84.2722L116.455 172.331L80.07 190.528L101.065 154.605L73.0767 186.796L82.8689 139.677L64.6801 183.527L62.8141 134.55L59.0823 184.46L44.6175 139.215L53.0141 188.662L27.3617 151.806L49.2823 196.125L15.633 174.134L46.9538 203.119L12.2226 188.905L43.6845 205.918L11.0858 203.103L42.7516 210.582L20.7447 215.6L43.6845 213.852L28.2946 224.114L64.6801 214.314L98.7292 222.248Z" fill="#F88F24"/>
<path d="M91.8849 295.325L81.0657 286.254L111.43 289.743L84.5545 281.017L112.128 276.133H81.0657L105.15 257.983L77.9297 271.593L93.6332 244.718L72.6926 268.802L80.023 233.554L66.4049 266.356L65.0094 229.712L62.2184 267.054L51.3992 233.201L57.6868 270.198L38.4867 242.625L54.8958 275.78L29.7137 259.332L53.1475 281.017L27.1657 270.378L50.7014 283.11L26.3112 281.009L50.0036 286.599L33.5396 290.354L50.7014 289.045L39.1844 296.721L66.4049 289.39L91.8849 295.325Z" fill="#F88F24"/>
<path d="M51.4304 320.382L41.4501 337.026C40.6909 338.29 40.194 339.694 39.9893 341.154C39.7845 342.614 39.8761 344.101 40.2584 345.525L44.688 362.059C45.0018 363.231 45.6952 364.266 46.6598 365.003C47.6244 365.739 48.8058 366.135 50.0192 366.128H95.4912C96.703 366.131 97.8816 365.732 98.8432 364.995C99.8047 364.257 100.495 363.222 100.807 362.051L105.244 345.517C105.628 344.093 105.721 342.607 105.517 341.147C105.314 339.687 104.818 338.283 104.06 337.018L94.08 320.382C93.7448 319.825 93.2712 319.364 92.7052 319.043C92.1393 318.723 91.5002 318.555 90.85 318.555H54.6684C54.0168 318.554 53.3761 318.721 52.8087 319.042C52.2412 319.362 51.7664 319.823 51.4304 320.382V320.382Z" fill="white" stroke="#263238" stroke-linejoin="round"/>
<path d="M313.02 43.6375H219.387V176.494H313.02V43.6375Z" stroke="#263238" stroke-linecap="round" stroke-linejoin="round"/>
<path d="M309.453 48.6943H222.954V171.429H309.453V48.6943Z" stroke="#263238" stroke-linecap="round" stroke-linejoin="round"/>
<path d="M223.079 161.582C233.193 147.51 248.661 139.63 264.796 133.986C278.61 129.164 288.363 122.563 295.45 109.313C305.744 90.0738 300.452 64.8525 295.45 48.7726" stroke="#263238" stroke-linecap="round" stroke-linejoin="round"/>
<path d="M265.776 48.8824C272.417 57.9768 280.241 73.5157 274.243 91.289C269.539 105.158 260.531 110.607 248.081 101.693C240.61 96.3458 232.401 86.875 223.064 82.5709" stroke="#263238" stroke-linecap="round" stroke-linejoin="round"/>
<path d="M266.403 171.445C270.747 168.827 276.517 164.107 283.079 155.624C286.05 151.79 291.593 144.883 297.348 146.616C303.831 148.568 304.208 158.603 302.695 163.801C301.886 166.466 300.74 169.016 299.284 171.39" stroke="#263238" stroke-linecap="round" stroke-linejoin="round"/>
<path d="M243.134 133.006C248.798 133.006 253.389 128.414 253.389 122.751C253.389 117.087 248.798 112.496 243.134 112.496C237.471 112.496 232.879 117.087 232.879 122.751C232.879 128.414 237.471 133.006 243.134 133.006Z" stroke="#263238" stroke-linecap="round" stroke-linejoin="round"/>
<path d="M261.856 58.9411C261.854 59.6742 261.636 60.3904 261.227 60.9992C260.819 61.608 260.239 62.0821 259.561 62.3616C258.884 62.6411 258.138 62.7134 257.419 62.5694C256.701 62.4254 256.041 62.0716 255.523 61.5527C255.005 61.0338 254.652 60.373 254.51 59.6539C254.368 58.9347 254.441 58.1895 254.722 57.5124C255.003 56.8352 255.479 56.2565 256.088 55.8494C256.698 55.4423 257.415 55.225 258.148 55.225C258.635 55.225 259.118 55.3211 259.569 55.508C260.019 55.6949 260.428 55.9687 260.773 56.3139C261.117 56.6591 261.39 57.0688 261.576 57.5196C261.762 57.9704 261.857 58.4535 261.856 58.9411Z" stroke="#263238" stroke-linecap="round" stroke-linejoin="round"/>
<path d="M299.339 134.77C301.682 134.77 303.581 132.871 303.581 130.528C303.581 128.186 301.682 126.287 299.339 126.287C296.997 126.287 295.098 128.186 295.098 130.528C295.098 132.871 296.997 134.77 299.339 134.77Z" stroke="#263238" stroke-linecap="round" stroke-linejoin="round"/>
<path d="M326.261 66.7576V203.44H335.317V66.7576H326.261ZM330.793 73.0923C330.627 73.1115 330.459 73.0954 330.3 73.045C330.141 72.9947 329.994 72.9112 329.869 72.8002C329.745 72.6891 329.645 72.553 329.577 72.4006C329.508 72.2483 329.473 72.0832 329.473 71.9163C329.473 71.7493 329.508 71.5843 329.577 71.432C329.645 71.2796 329.745 71.1435 329.869 71.0324C329.994 70.9213 330.141 70.8379 330.3 70.7876C330.459 70.7372 330.627 70.7211 330.793 70.7403C331.081 70.7737 331.348 70.9119 331.541 71.1287C331.734 71.3456 331.841 71.6259 331.841 71.9163C331.841 72.2067 331.734 72.487 331.541 72.7038C331.348 72.9207 331.081 73.0589 330.793 73.0923V73.0923Z" fill="#F88F24" stroke="#263238" stroke-linecap="round" stroke-linejoin="round"/>
<path d="M332.777 192.864H299.637C300.609 194.604 303.165 198.352 307.438 199.05C313.036 199.936 319.198 197.874 324.529 203.471H337.073C342.373 197.874 348.559 199.936 354.156 199.05C358.437 198.375 360.993 194.604 361.996 192.864H332.777Z" fill="#263238" stroke="#263238" stroke-linecap="round" stroke-linejoin="round"/>
<path d="M168.043 224.483H119.96V287.728H168.043V224.483Z" fill="#263238" stroke="#263238" stroke-linecap="round" stroke-linejoin="round"/>
<path d="M191.037 224.483H142.954V287.728H191.037V224.483Z" fill="white" stroke="#263238" stroke-linecap="round" stroke-linejoin="round"/>
<path d="M187.384 256.995H146.616V280.931H187.384V256.995Z" fill="white" stroke="#263238" stroke-linecap="round" stroke-linejoin="round"/>
<path d="M187.384 229.297H146.616V253.232H187.384V229.297Z" fill="white" stroke="#263238" stroke-linecap="round" stroke-linejoin="round"/>
<path d="M174.213 239.12H159.787V243.408H174.213V239.12Z" fill="#263238" stroke="#263238" stroke-linecap="round" stroke-linejoin="round"/>
<path d="M174.213 265.251H159.787V269.539H174.213V265.251Z" fill="#263238" stroke="#263238" stroke-linecap="round" stroke-linejoin="round"/>
<path d="M101.599 223.832H91.9161C129.65 248.136 158.878 319.268 159.583 366.136H165.071C164.734 341.299 157.129 311.091 144.076 282.914C132.088 256.948 117.224 236.376 101.599 223.832Z" fill="#263238"/>
<path d="M127.91 223.832C112.284 236.376 97.4198 256.948 85.3932 282.914C72.3396 311.091 64.7348 341.299 64.3977 366.128H69.8857C70.5913 319.26 99.8188 248.097 137.553 223.824L127.91 223.832Z" fill="#263238"/>
<path d="M228.034 224.577H218.352C256.078 248.881 285.313 320.013 286.019 366.881H291.546C291.209 342.043 283.604 311.836 270.551 283.659C258.524 257.693 243.651 237.121 228.034 224.577Z" fill="#263238"/>
<path d="M254.345 224.577C238.72 237.121 223.855 257.693 211.821 283.659C198.775 311.836 191.163 342.043 190.826 366.912H196.361C197.058 320.044 226.294 248.881 264.028 224.608L254.345 224.577Z" fill="#263238"/>
<path d="M231.523 131.571L234.032 125.997H97.0827L96.918 126.357L94.566 131.571L125.04 222.491H261.997L231.523 131.571Z" fill="#263238" stroke="#263238" stroke-linecap="round" stroke-linejoin="round"/>
<path d="M266.701 222.491H129.744L97.0826 125.997H234.032L266.701 222.491Z" fill="white" stroke="#263238" stroke-linecap="round" stroke-linejoin="round"/>
<path d="M251.593 213.899H139.027L112.182 134.589H224.749L251.593 213.899Z" fill="white" stroke="#263238" stroke-linecap="round" stroke-linejoin="round"/>
<path d="M183.644 177.16H223.064L217.662 161.183H178.234L183.644 177.16Z" fill="white" stroke="#263238" stroke-width="0.5" stroke-linecap="round" stroke-linejoin="round"/>
<path d="M178.752 162.711H218.179L217.662 161.183H178.234L178.752 162.711Z" fill="white" stroke="#263238" stroke-width="0.5" stroke-linecap="round" stroke-linejoin="round"/>
<path d="M218.901 159.826H177.952L174.557 149.799H209.226L218.901 159.826Z" fill="white" stroke="#263238" stroke-width="0.5" stroke-linecap="round" stroke-linejoin="round"/>
<path d="M178.242 161.7H219.536L218.901 159.826H177.607L178.242 161.7Z" fill="white" stroke="#263238" stroke-width="0.5" stroke-linecap="round" stroke-linejoin="round"/>
<path d="M183.456 155.922H155.828L160.351 169.289H187.98L183.456 155.922Z" fill="white" stroke="#263238" stroke-width="0.5" stroke-linecap="round" stroke-linejoin="round"/>
<path d="M183.456 155.922H155.828L156.29 157.278H183.918L183.456 155.922Z" fill="white" stroke="#263238" stroke-width="0.5" stroke-linecap="round" stroke-linejoin="round"/>
<path d="M164.718 142.304L153.507 153.609H183.574L164.718 142.304Z" fill="white" stroke="#263238" stroke-width="0.5" stroke-linecap="round" stroke-linejoin="round"/>
<path d="M165.236 143.848L156.322 152.841H180.241L165.236 143.848Z" fill="white" stroke="#263238" stroke-width="0.5" stroke-linecap="round" stroke-linejoin="round"/>
<path d="M149.07 195.585H147.266L140.203 174.691H141.998L149.07 195.585Z" fill="white" stroke="#263238" stroke-width="0.5" stroke-linecap="round" stroke-linejoin="round"/>
<path d="M234.886 195.522H151.618L144.57 174.691H227.846L234.886 195.522Z" fill="white" stroke="#263238" stroke-width="0.5" stroke-linecap="round" stroke-linejoin="round"/>
<path d="M228.622 176.988H145.346L144.57 174.691H227.846L228.622 176.988Z" fill="white" stroke="#263238" stroke-width="0.5" stroke-linecap="round" stroke-linejoin="round"/>
<path d="M194.087 174.048H137.67L140.336 167.878H192.002L194.087 174.048Z" fill="white" stroke="#263238" stroke-width="0.5" stroke-linecap="round" stroke-linejoin="round"/>
<path d="M183.981 175.334H138.102L137.67 174.048H183.55L183.981 175.334Z" fill="white" stroke="#263238" stroke-width="0.5" stroke-linecap="round" stroke-linejoin="round"/>
<path d="M227.627 174.048H181.104L188.372 195.522H234.886L227.627 174.048Z" fill="white" stroke="#263238" stroke-width="0.5" stroke-linecap="round" stroke-linejoin="round"/>
<path d="M226.85 175.295H182.719L189.563 195.522H233.695L226.85 175.295Z" fill="white" stroke="#263238" stroke-width="0.5" stroke-linecap="round" stroke-linejoin="round"/>
<path d="M224.13 178.156H187.376L193.256 195.522H230.01L224.13 178.156Z" fill="white" stroke="#263238" stroke-width="0.5" stroke-linecap="round" stroke-linejoin="round"/>
<path d="M199.591 186.874H191.288L190.183 183.605H198.477L199.591 186.874Z" fill="white" stroke="#263238" stroke-width="0.5" stroke-linecap="round" stroke-linejoin="round"/>
<path d="M208.45 186.874H200.147L199.042 183.605H207.337L208.45 186.874Z" fill="white" stroke="#263238" stroke-width="0.5" stroke-linecap="round" stroke-linejoin="round"/>
<path d="M200.908 190.786H192.613L191.5 187.517H199.802L200.908 190.786Z" fill="white" stroke="#263238" stroke-width="0.5" stroke-linecap="round" stroke-linejoin="round"/>
<path d="M209.767 190.786H201.472L200.359 187.517H208.662L209.767 190.786Z" fill="white" stroke="#263238" stroke-width="0.5" stroke-linecap="round" stroke-linejoin="round"/>
<path d="M202.233 194.699H193.93L192.825 191.429H201.127L202.233 194.699Z" fill="white" stroke="#263238" stroke-width="0.5" stroke-linecap="round" stroke-linejoin="round"/>
<path d="M211.092 194.699H202.789L201.684 191.429H209.987L211.092 194.699Z" fill="white" stroke="#263238" stroke-width="0.5" stroke-linecap="round" stroke-linejoin="round"/>
<path d="M217.309 186.874H209.007L207.901 183.605H216.204L217.309 186.874Z" fill="white" stroke="#263238" stroke-width="0.5" stroke-linecap="round" stroke-linejoin="round"/>
<path d="M226.168 186.874H217.866L216.76 183.605H225.063L226.168 186.874Z" fill="white" stroke="#263238" stroke-width="0.5" stroke-linecap="round" stroke-linejoin="round"/>
<path d="M218.634 190.786H210.332L209.226 187.517H217.521L218.634 190.786Z" fill="white" stroke="#263238" stroke-width="0.5" stroke-linecap="round" stroke-linejoin="round"/>
<path d="M227.493 190.786H219.191L218.085 187.517H226.38L227.493 190.786Z" fill="white" stroke="#263238" stroke-width="0.5" stroke-linecap="round" stroke-linejoin="round"/>
<path d="M219.951 194.699H211.649L210.543 191.429H218.846L219.951 194.699Z" fill="white" stroke="#263238" stroke-width="0.5" stroke-linecap="round" stroke-linejoin="round"/>
<path d="M228.81 194.699H220.516L219.402 191.429H227.705L228.81 194.699Z" fill="white" stroke="#263238" stroke-width="0.5" stroke-linecap="round" stroke-linejoin="round"/>
<path d="M196.854 153.343L179.395 174.299H228.481L196.854 153.343Z" fill="white" stroke="#263238" stroke-width="0.5" stroke-linecap="round" stroke-linejoin="round"/>
<path d="M197.819 156.204L183.934 172.872H222.977L197.819 156.204Z" fill="white" stroke="#263238" stroke-width="0.5" stroke-linecap="round" stroke-linejoin="round"/>
<path d="M184.789 156.055H154.33L153.507 153.609H183.966L184.789 156.055Z" fill="white" stroke="#263238" stroke-width="0.5" stroke-linecap="round" stroke-linejoin="round"/>
<path d="M182.358 167.11H164.365L160.845 156.698H178.838L182.358 167.11Z" fill="white" stroke="#263238" stroke-width="0.5" stroke-linecap="round" stroke-linejoin="round"/>
<path d="M179.787 167.11H166.937L163.417 156.698H176.267L179.787 167.11Z" fill="white" stroke="#263238" stroke-width="0.5" stroke-linecap="round" stroke-linejoin="round"/>
<path d="M173.875 167.11H172.848L169.328 156.698H170.355L173.875 167.11Z" fill="white" stroke="#263238" stroke-width="0.5" stroke-linecap="round" stroke-linejoin="round"/>
<path d="M165.393 162.351L165.087 161.449H177.811L178.117 162.351H165.393Z" fill="white" stroke="#263238" stroke-width="0.5" stroke-linecap="round" stroke-linejoin="round"/>
<path d="M172.331 192.166H154.338L149.987 179.316H167.98L172.331 192.166Z" fill="white" stroke="#263238" stroke-width="0.5" stroke-linecap="round" stroke-linejoin="round"/>
<path d="M169.759 192.166H156.902L152.558 179.316H165.408L169.759 192.166Z" fill="white" stroke="#263238" stroke-width="0.5" stroke-linecap="round" stroke-linejoin="round"/>
<path d="M163.848 192.166H162.821L158.47 179.316H159.497L163.848 192.166Z" fill="white" stroke="#263238" stroke-width="0.5" stroke-linecap="round" stroke-linejoin="round"/>
<path d="M154.989 186.294L154.613 185.181H167.376L167.752 186.294H154.989Z" fill="white" stroke="#263238" stroke-width="0.5" stroke-linecap="round" stroke-linejoin="round"/>
<path d="M180.79 179.567H173.852L179.199 195.381H186.137L180.79 179.567Z" fill="white" stroke="#263238" stroke-width="0.5" stroke-linecap="round" stroke-linejoin="round"/>
<path d="M179.967 180.555H175.342L179.481 192.809H184.107L179.967 180.555Z" fill="white" stroke="#263238" stroke-width="0.5" stroke-linecap="round" stroke-linejoin="round"/>
<path d="M190.292 180.641L190.065 179.959H188.85L189.085 180.641H190.292Z" fill="white" stroke="#263238" stroke-width="0.5" stroke-linecap="round" stroke-linejoin="round"/>
<path d="M190.825 180.641H192.041L191.805 179.959H190.598L190.825 180.641Z" fill="white" stroke="#263238" stroke-width="0.5" stroke-linecap="round" stroke-linejoin="round"/>
<path d="M190.418 181.01H189.21L189.501 181.865H190.708L190.418 181.01Z" fill="white" stroke="#263238" stroke-width="0.5" stroke-linecap="round" stroke-linejoin="round"/>
<path d="M190.951 181.01L191.241 181.865H192.456L192.166 181.01H190.951Z" fill="white" stroke="#263238" stroke-width="0.5" stroke-linecap="round" stroke-linejoin="round"/>
<path d="M194.855 180.641L194.62 179.959H193.413L193.64 180.641H194.855Z" fill="white" stroke="#263238" stroke-width="0.5" stroke-linecap="round" stroke-linejoin="round"/>
<path d="M195.388 180.641H196.596L196.368 179.959H195.161L195.388 180.641Z" fill="white" stroke="#263238" stroke-width="0.5" stroke-linecap="round" stroke-linejoin="round"/>
<path d="M194.981 181.01H193.766L194.056 181.865H195.271L194.981 181.01Z" fill="white" stroke="#263238" stroke-width="0.5" stroke-linecap="round" stroke-linejoin="round"/>
<path d="M195.514 181.01L195.804 181.865H197.011L196.721 181.01H195.514Z" fill="white" stroke="#263238" stroke-width="0.5" stroke-linecap="round" stroke-linejoin="round"/>
<path d="M199.41 180.641L199.183 179.959H197.968L198.203 180.641H199.41Z" fill="white" stroke="#263238" stroke-width="0.5" stroke-linecap="round" stroke-linejoin="round"/>
<path d="M199.943 180.641H201.159L200.923 179.959H199.716L199.943 180.641Z" fill="white" stroke="#263238" stroke-width="0.5" stroke-linecap="round" stroke-linejoin="round"/>
<path d="M199.536 181.01H198.328L198.618 181.865H199.826L199.536 181.01Z" fill="white" stroke="#263238" stroke-width="0.5" stroke-linecap="round" stroke-linejoin="round"/>
<path d="M200.069 181.01L200.359 181.865H201.574L201.284 181.01H200.069Z" fill="white" stroke="#263238" stroke-width="0.5" stroke-linecap="round" stroke-linejoin="round"/>
<path d="M203.973 180.641L203.738 179.959H202.531L202.758 180.641H203.973Z" fill="white" stroke="#263238" stroke-width="0.5" stroke-linecap="round" stroke-linejoin="round"/>
<path d="M204.506 180.641H205.714L205.486 179.959H204.279L204.506 180.641Z" fill="white" stroke="#263238" stroke-width="0.5" stroke-linecap="round" stroke-linejoin="round"/>
<path d="M204.099 181.01H202.883L203.173 181.865H204.389L204.099 181.01Z" fill="white" stroke="#263238" stroke-width="0.5" stroke-linecap="round" stroke-linejoin="round"/>
<path d="M204.632 181.01L204.922 181.865H206.129L205.839 181.01H204.632Z" fill="white" stroke="#263238" stroke-width="0.5" stroke-linecap="round" stroke-linejoin="round"/>
<path d="M208.528 180.641L208.301 179.959H207.086L207.321 180.641H208.528Z" fill="white" stroke="#263238" stroke-width="0.5" stroke-linecap="round" stroke-linejoin="round"/>
<path d="M209.061 180.641H210.277L210.041 179.959H208.834L209.061 180.641Z" fill="white" stroke="#263238" stroke-width="0.5" stroke-linecap="round" stroke-linejoin="round"/>
<path d="M208.654 181.01H207.446L207.736 181.865H208.944L208.654 181.01Z" fill="white" stroke="#263238" stroke-width="0.5" stroke-linecap="round" stroke-linejoin="round"/>
<path d="M209.187 181.01L209.477 181.865H210.692L210.402 181.01H209.187Z" fill="white" stroke="#263238" stroke-width="0.5" stroke-linecap="round" stroke-linejoin="round"/>
<path d="M213.091 180.641L212.856 179.959H211.649L211.876 180.641H213.091Z" fill="white" stroke="#263238" stroke-width="0.5" stroke-linecap="round" stroke-linejoin="round"/>
<path d="M213.624 180.641H214.832L214.604 179.959H213.397L213.624 180.641Z" fill="white" stroke="#263238" stroke-width="0.5" stroke-linecap="round" stroke-linejoin="round"/>
<path d="M213.217 181.01H212.009L212.292 181.865H213.507L213.217 181.01Z" fill="white" stroke="#263238" stroke-width="0.5" stroke-linecap="round" stroke-linejoin="round"/>
<path d="M213.75 181.01L214.04 181.865H215.247L214.965 181.01H213.75Z" fill="white" stroke="#263238" stroke-width="0.5" stroke-linecap="round" stroke-linejoin="round"/>
<path d="M217.646 180.641L217.419 179.959H216.204L216.439 180.641H217.646Z" fill="white" stroke="#263238" stroke-width="0.5" stroke-linecap="round" stroke-linejoin="round"/>
<path d="M218.179 180.641H219.394L219.167 179.959H217.952L218.179 180.641Z" fill="white" stroke="#263238" stroke-width="0.5" stroke-linecap="round" stroke-linejoin="round"/>
<path d="M217.772 181.01H216.564L216.854 181.865H218.062L217.772 181.01Z" fill="white" stroke="#263238" stroke-width="0.5" stroke-linecap="round" stroke-linejoin="round"/>
<path d="M218.313 181.01L218.595 181.865H219.81L219.52 181.01H218.313Z" fill="white" stroke="#263238" stroke-width="0.5" stroke-linecap="round" stroke-linejoin="round"/>
<path d="M222.209 180.641L221.974 179.959H220.766L220.994 180.641H222.209Z" fill="white" stroke="#263238" stroke-width="0.5" stroke-linecap="round" stroke-linejoin="round"/>
<path d="M222.742 180.641H223.95L223.722 179.959H222.515L222.742 180.641Z" fill="white" stroke="#263238" stroke-width="0.5" stroke-linecap="round" stroke-linejoin="round"/>
<path d="M222.335 181.01H221.127L221.409 181.865H222.625L222.335 181.01Z" fill="white" stroke="#263238" stroke-width="0.5" stroke-linecap="round" stroke-linejoin="round"/>
<path d="M222.868 181.01L223.158 181.865H224.365L224.075 181.01H222.868Z" fill="white" stroke="#263238" stroke-width="0.5" stroke-linecap="round" stroke-linejoin="round"/>
<path d="M150.136 154.08H128.646" stroke="#263238" stroke-width="0.5" stroke-linecap="round" stroke-linejoin="round"/>
<path d="M125.385 145.675L133.319 169.956" stroke="#263238" stroke-width="0.5" stroke-linecap="round" stroke-linejoin="round"/>
<path d="M212.707 149.407H224.389" stroke="#263238" stroke-width="0.5" stroke-linecap="round" stroke-linejoin="round"/>
<path d="M221.119 146.138L235.129 184.899" stroke="#263238" stroke-width="0.5" stroke-linecap="round" stroke-linejoin="round"/>
<path d="M154.299 145.832H129.603L128.27 141.253H152.958L154.299 145.832Z" fill="white" stroke="#263238" stroke-linecap="round" stroke-linejoin="round"/>
<path d="M133.476 141.606L134.699 145.675" stroke="#263238" stroke-linecap="round" stroke-linejoin="round"/>
<path d="M134.291 143.84H153.413" stroke="#263238" stroke-linecap="round" stroke-linejoin="round"/>
<path d="M118.266 167.157L136.518 221.088H189.312L118.266 167.157ZM133.029 186.906L168.09 213.515H142.029L133.029 186.906Z" fill="#F88F24" stroke="#263238" stroke-linecap="round" stroke-linejoin="round"/>
<path d="M251.978 220.437H77.9531V226.325H251.978V220.437Z" fill="#263238" stroke="#263238" stroke-linecap="round" stroke-linejoin="round"/>
<path d="M270.95 220.437H131.539V226.325H270.95V220.437Z" fill="white" stroke="#263238" stroke-linecap="round" stroke-linejoin="round"/>
<path d="M125.189 122.571C124.713 122.569 124.254 122.393 123.897 122.077C123.541 121.761 123.312 121.326 123.253 120.854L115.068 55.907C115.003 55.3872 115.148 54.8631 115.47 54.4499C115.792 54.0368 116.265 53.7684 116.785 53.704C117.305 53.6395 117.829 53.7842 118.242 54.1062C118.655 54.4282 118.923 54.9011 118.988 55.4209L127.173 120.36C127.237 120.875 127.094 121.395 126.775 121.806C126.456 122.216 125.987 122.482 125.471 122.547C125.378 122.565 125.284 122.573 125.189 122.571V122.571Z" fill="#263238"/>
<path d="M117.522 59.3958C117.21 59.4218 116.9 59.3228 116.661 59.1207C116.422 58.9185 116.274 58.6297 116.248 58.3178C116.222 58.0059 116.321 57.6965 116.523 57.4576C116.725 57.2186 117.014 57.0698 117.326 57.0438L167.948 48.3728C168.26 48.3198 168.581 48.3928 168.839 48.5758C169.097 48.7589 169.271 49.037 169.324 49.3489C169.377 49.6607 169.304 49.9809 169.121 50.239C168.938 50.497 168.66 50.6717 168.348 50.7248L117.725 59.3801C117.658 59.3931 117.59 59.3984 117.522 59.3958V59.3958Z" fill="#263238"/>
<path d="M118.549 65.5345C118.394 65.5479 118.239 65.5307 118.091 65.484C117.943 65.4373 117.806 65.3619 117.687 65.2621C117.569 65.1624 117.471 65.0403 117.399 64.9027C117.328 64.7652 117.284 64.6149 117.271 64.4604C117.257 64.306 117.275 64.1504 117.321 64.0026C117.368 63.8548 117.443 63.7177 117.543 63.599C117.643 63.4804 117.765 63.3825 117.903 63.311C118.04 63.2396 118.19 63.1959 118.345 63.1825L168.976 54.488C169.13 54.4622 169.288 54.4672 169.441 54.5025C169.593 54.5378 169.737 54.6028 169.865 54.6938C169.992 54.7848 170.1 54.9 170.183 55.0328C170.266 55.1657 170.322 55.3135 170.348 55.468C170.373 55.6224 170.368 55.7804 170.333 55.9329C170.298 56.0854 170.233 56.2295 170.142 56.3569C170.051 56.4843 169.936 56.5926 169.803 56.6754C169.67 56.7583 169.522 56.8142 169.368 56.84L118.745 65.5188L118.549 65.5345Z" fill="#263238"/>
<path d="M168.662 47.9965L162.014 58.7294L173.774 59.7565L174.793 57.2006L168.662 47.9965Z" fill="#263238"/>
<path d="M173.774 60.1485L162.014 59.1214C161.947 59.1153 161.884 59.0924 161.828 59.0547C161.773 59.0171 161.729 58.9661 161.699 58.9064C161.669 58.8467 161.655 58.7805 161.658 58.7138C161.661 58.6472 161.681 58.5824 161.716 58.5256L168.325 47.824C168.36 47.7688 168.409 47.7234 168.467 47.6919C168.524 47.6604 168.589 47.6438 168.654 47.6437C168.719 47.6455 168.782 47.662 168.839 47.6918C168.896 47.7217 168.945 47.7643 168.983 47.8162L175.122 57.0203C175.151 57.076 175.166 57.1379 175.166 57.2006C175.166 57.2634 175.151 57.3252 175.122 57.381L174.095 59.9368C174.066 59.9977 174.02 60.0496 173.964 60.0868C173.907 60.1241 173.841 60.1454 173.774 60.1485V60.1485ZM162.68 58.4002L173.515 59.341L174.354 57.232L168.67 48.7021L162.68 58.4002Z" fill="#263238"/>
<path d="M196.369 76.1264L189.626 61.2931C189.626 59.5526 185.965 58.1571 181.441 58.1571C176.918 58.1571 173.264 59.584 173.264 61.2931L166.514 76.1264C165.958 76.6636 165.627 77.3924 165.589 78.1648C165.589 81.5281 172.692 84.2643 181.441 84.2643C190.191 84.2643 197.294 81.5281 197.294 78.1648C197.256 77.3924 196.925 76.6636 196.369 76.1264V76.1264Z" fill="#263238"/>
<path d="M181.441 84.672C172.331 84.672 165.197 81.8182 165.197 78.1805C165.234 77.3219 165.595 76.5094 166.208 75.9069L172.896 61.199C173.005 59.2234 176.651 57.7495 181.465 57.7495C186.278 57.7495 189.932 59.2234 190.042 61.199L196.721 75.9069C197.325 76.507 197.678 77.3141 197.709 78.1648C197.686 81.8026 190.551 84.672 181.441 84.672ZM181.441 58.5491C176.855 58.5491 173.656 59.9995 173.656 61.3088C173.655 61.3634 173.642 61.417 173.617 61.4656L166.874 76.3067C166.858 76.3453 166.834 76.38 166.804 76.4086C166.33 76.88 166.05 77.5124 166.02 78.1805C166.02 81.2694 173.076 83.888 181.48 83.888C189.885 83.888 196.941 81.2694 196.941 78.1805C196.904 77.5062 196.609 76.8719 196.118 76.4086C196.092 76.3776 196.071 76.3434 196.055 76.3067L189.305 61.4656C189.293 61.414 189.293 61.3604 189.305 61.3088C189.234 59.9838 186.035 58.5335 181.441 58.5335V58.5491Z" fill="#263238"/>
<path d="M174.793 46.9694L173.264 61.2931H189.626L188.089 46.9694H174.793Z" fill="#263238"/>
<path d="M189.626 61.6851H173.264C173.208 61.6856 173.152 61.6739 173.101 61.6509C173.049 61.6279 173.003 61.5941 172.966 61.5518C172.93 61.5101 172.903 61.4613 172.887 61.4087C172.871 61.3561 172.866 61.3007 172.872 61.246L174.44 46.9302C174.45 46.8345 174.494 46.7457 174.565 46.6806C174.636 46.6156 174.728 46.5788 174.824 46.5774H188.152C188.249 46.5786 188.343 46.6151 188.415 46.68C188.487 46.7449 188.533 46.8338 188.544 46.9302L190.112 61.246C190.117 61.3013 190.11 61.3568 190.093 61.4094C190.075 61.462 190.047 61.5104 190.01 61.5518C189.966 61.6085 189.906 61.6512 189.838 61.6748C189.77 61.6984 189.696 61.702 189.626 61.6851ZM173.695 60.9011H189.187L187.737 47.3614H175.146L173.695 60.9011Z" fill="#263238"/>
<path d="M188.089 46.9694C188.089 48.3806 185.118 49.5253 181.441 49.5253C177.764 49.5253 174.832 48.3806 174.832 46.9694C174.832 45.5582 177.811 44.4136 181.48 44.4136C185.149 44.4136 188.089 45.5582 188.089 46.9694Z" fill="#636363"/>
<path d="M181.441 49.9173C178.031 49.9173 174.385 48.8902 174.385 46.9694C174.385 45.0486 178.015 44.0216 181.441 44.0216C184.867 44.0216 188.497 45.0565 188.497 46.9694C188.497 48.8824 184.859 49.9173 181.441 49.9173ZM181.441 44.8056C177.756 44.8056 175.169 45.9502 175.169 46.9694C175.169 47.9886 177.741 49.1333 181.441 49.1333C185.142 49.1333 187.713 47.9965 187.713 46.9694C187.713 45.9424 185.126 44.8056 181.441 44.8056V44.8056Z" fill="#263238"/>
<path d="M127.479 114.166L121.254 125.307L124.452 127.596C125.357 128.239 126.439 128.584 127.549 128.584C128.347 128.583 129.135 128.403 129.854 128.057C130.573 127.711 131.205 127.208 131.704 126.585L132.723 125.307L129.446 114.817L127.479 114.166Z" fill="#263238"/>
<path d="M127.549 128.976C126.357 128.977 125.194 128.604 124.225 127.91L121.026 125.628C120.947 125.573 120.892 125.49 120.87 125.396C120.848 125.302 120.862 125.203 120.909 125.119L127.141 113.97C127.185 113.89 127.255 113.828 127.34 113.795C127.424 113.762 127.518 113.76 127.604 113.79L129.572 114.448C129.63 114.468 129.683 114.501 129.726 114.544C129.77 114.588 129.803 114.641 129.823 114.699L133.1 125.189C133.12 125.25 133.124 125.315 133.111 125.379C133.099 125.442 133.071 125.501 133.029 125.55L132.01 126.836C131.475 127.504 130.796 128.044 130.023 128.414C129.251 128.785 128.406 128.977 127.549 128.976ZM121.771 125.189L124.687 127.275C125.713 128.008 126.98 128.32 128.229 128.146C129.477 127.972 130.612 127.327 131.398 126.342L132.292 125.228L129.156 115.123L127.69 114.636L121.771 125.189Z" fill="#263238"/>
<path d="M128.772 118.713C128.504 118.714 128.244 118.622 128.036 118.454C127.827 118.285 127.683 118.05 127.627 117.788L120.47 85.064C120.432 84.9116 120.426 84.7533 120.451 84.5984C120.476 84.4435 120.531 84.2951 120.614 84.162C120.697 84.029 120.806 83.9138 120.934 83.8235C121.063 83.7331 121.208 83.6693 121.361 83.6358C121.514 83.6023 121.673 83.5998 121.827 83.6285C121.981 83.6572 122.128 83.7164 122.259 83.8028C122.39 83.8891 122.502 84.0008 122.59 84.1312C122.677 84.2616 122.737 84.4082 122.767 84.5622L129.925 117.286C129.99 117.592 129.932 117.911 129.763 118.174C129.594 118.437 129.328 118.622 129.023 118.69C128.94 118.706 128.856 118.714 128.772 118.713V118.713Z" fill="#263238"/>
<path d="M168.144 50.7013C167.933 50.7018 167.725 50.6453 167.543 50.5377C167.361 50.4301 167.211 50.2753 167.11 50.0897C167.023 49.9251 164.954 46.0129 166.106 42.8456C166.366 42.1242 166.781 41.469 167.323 40.9269C167.866 40.3848 168.521 39.9691 169.242 39.7096C169.981 39.3682 170.786 39.1954 171.599 39.2035C172.413 39.2117 173.215 39.4006 173.946 39.7566C176.572 41.0973 177.443 44.4606 177.482 44.6096C177.558 44.9121 177.51 45.2324 177.35 45.5C177.19 45.7676 176.93 45.9606 176.627 46.0365C176.325 46.1124 176.005 46.065 175.737 45.9047C175.469 45.7444 175.276 45.4844 175.2 45.1819C175.2 45.1819 174.542 42.6966 172.848 41.8421C172.416 41.6476 171.945 41.5516 171.47 41.5611C170.996 41.5706 170.529 41.6853 170.104 41.8969C169.696 42.0333 169.323 42.2578 169.012 42.5545C168.7 42.8512 168.457 43.2129 168.301 43.6139C167.643 45.4171 168.701 48.0749 169.172 48.9451C169.309 49.2186 169.335 49.5347 169.244 49.827C169.154 50.1194 168.953 50.3653 168.685 50.5131C168.524 50.6197 168.338 50.6844 168.144 50.7013V50.7013Z" fill="#263238"/>
<path d="M28.9139 366.136H373.592" stroke="#263238" stroke-miterlimit="10"/>
<path d="M113.573 240.316L102.072 238.361L83.2713 348.933L94.7721 350.888L113.573 240.316Z" fill="white" stroke="#263238" stroke-linecap="round" stroke-linejoin="round"/>
<path d="M79.3827 238.922L68.1023 241.896L96.6961 350.349L107.977 347.375L79.3827 238.922Z" fill="white" stroke="#263238" stroke-linecap="round" stroke-linejoin="round"/>
<path d="M125.232 243.939L113.782 241.707L92.3233 351.794L103.774 354.026L125.232 243.939Z" fill="white" stroke="#263238" stroke-linecap="round" stroke-linejoin="round"/>
<path d="M117.874 291.585H73.1393V366.144H117.874V291.585Z" fill="#F88F24" stroke="#263238" stroke-linecap="round" stroke-linejoin="round"/>
</svg>
