<svg width="393" height="392" viewBox="0 0 393 392" fill="none" xmlns="http://www.w3.org/2000/svg">
<path d="M342.761 329.202H51.1604C51.1604 329.202 41.9013 313.6 35.4804 282.24C29.0594 250.88 59.6589 262.326 67.4832 235.294C75.3076 208.262 41.1722 213.961 44.0181 176.972C46.864 139.983 93.8021 139.278 116.562 144.256C139.321 149.234 136.475 132.167 162.818 103.715C189.16 75.2639 228.964 78.1099 248.877 100.164C268.791 122.218 262.386 144.969 287.293 144.969C312.201 144.969 334.968 149.971 349.864 197.623C364.76 245.274 337.501 267.054 337.995 288.567C338.402 302.224 339.997 315.82 342.761 329.202V329.202Z" fill="#F88F24"/>
<path opacity="0.7" d="M342.761 329.202H51.1604C51.1604 329.202 41.9013 313.6 35.4804 282.24C29.0594 250.88 59.6589 262.326 67.4832 235.294C75.3076 208.262 41.1722 213.961 44.0181 176.972C46.864 139.983 93.8021 139.278 116.562 144.256C139.321 149.234 136.475 132.167 162.818 103.715C189.16 75.2639 228.964 78.1099 248.877 100.164C268.791 122.218 262.386 144.969 287.293 144.969C312.201 144.969 334.968 149.971 349.864 197.623C364.76 245.274 337.501 267.054 337.995 288.567C338.402 302.224 339.997 315.82 342.761 329.202V329.202Z" fill="white"/>
<path d="M169.082 329.202C161.94 318.328 131.45 272.605 122.528 271.382C113.833 270.19 82.9361 316.422 74.5786 329.202H169.082Z" fill="#2E353A" stroke="#2E353A" stroke-linecap="round" stroke-linejoin="round"/>
<path d="M208.18 62.0378V167.478" stroke="#2E353A" stroke-width="3" stroke-linecap="round" stroke-linejoin="round"/>
<path d="M220.708 64.8682V167.478" stroke="#2E353A" stroke-width="3" stroke-linecap="round" stroke-linejoin="round"/>
<path d="M234.444 121.018V220.406" stroke="#2E353A" stroke-width="3" stroke-linecap="round" stroke-linejoin="round"/>
<path d="M248.987 64.8682V220.406" stroke="#2E353A" stroke-width="3" stroke-linecap="round" stroke-linejoin="round"/>
<path d="M263.531 64.8682V170.308" stroke="#2E353A" stroke-width="3" stroke-linecap="round" stroke-linejoin="round"/>
<path d="M197.275 76.1735H263.938" stroke="#2E353A" stroke-width="3" stroke-linecap="round" stroke-linejoin="round"/>
<path d="M197.275 99.6072H269.567" stroke="#2E353A" stroke-width="3" stroke-linecap="round" stroke-linejoin="round"/>
<path d="M196.067 121.018H276.458" stroke="#2E353A" stroke-width="3" stroke-linecap="round" stroke-linejoin="round"/>
<path d="M194.852 144.86H276.459" stroke="#2E353A" stroke-width="3" stroke-linecap="round" stroke-linejoin="round"/>
<path d="M210.203 170.708H272.013" stroke="#2E353A" stroke-width="3" stroke-linecap="round" stroke-linejoin="round"/>
<path d="M226.361 195.757H266.761" stroke="#2E353A" stroke-width="3" stroke-linecap="round" stroke-linejoin="round"/>
<path d="M120.004 72.0496L134.265 83.2137" stroke="#2E353A" stroke-width="2" stroke-linecap="round" stroke-linejoin="round"/>
<path d="M148.525 60.2739L153.488 67.7141" stroke="#2E353A" stroke-width="2" stroke-linecap="round" stroke-linejoin="round"/>
<path d="M173.951 42.2889L178.294 55.9305" stroke="#2E353A" stroke-width="2" stroke-linecap="round" stroke-linejoin="round"/>
<path d="M255.314 217.591H231.794V161.669H199.885V62.6259C186.437 62.7586 173.25 66.3485 161.59 73.0504C149.93 79.7523 140.19 89.3409 133.307 100.894C126.424 112.448 122.628 125.578 122.285 139.022C121.942 152.466 125.063 165.773 131.348 177.662C133.904 183.613 139.909 198.187 145.923 217.035C151.481 234.432 154.382 251.923 154.382 254.565C154.382 254.823 154.382 255.09 154.382 255.349C154.355 256.135 154.486 256.919 154.768 257.654C155.05 258.388 155.477 259.059 156.023 259.625C156.569 260.191 157.224 260.642 157.948 260.95C158.673 261.257 159.451 261.416 160.238 261.417H241.186C241.973 261.415 242.751 261.256 243.475 260.947C244.199 260.639 244.853 260.189 245.399 259.623C245.945 259.057 246.372 258.387 246.655 257.652C246.937 256.918 247.069 256.135 247.043 255.349C247.043 255.066 247.043 254.8 247.043 254.565C247.027 251.954 249.873 234.8 255.314 217.591Z" fill="#F88F24" stroke="#2E353A" stroke-width="2" stroke-linecap="round" stroke-linejoin="round"/>
<path d="M173.316 75.264C175.584 74.2411 177.912 73.3536 180.285 72.6062" stroke="#2E353A" stroke-width="2" stroke-linecap="round" stroke-linejoin="round"/>
<path d="M147.208 95.1305C147.208 95.1305 153.598 84.9385 167.639 78.0785" stroke="#2E353A" stroke-width="2" stroke-linecap="round" stroke-linejoin="round"/>
<path d="M148.886 207.964C151.795 217.466 155.644 230.629 156.977 237.983C159.235 250.386 157.761 256.799 162.622 257.905" stroke="#2E353A" stroke-width="2" stroke-linecap="round" stroke-linejoin="round"/>
<path d="M145.327 196.627C145.327 196.627 146.111 199.175 147.373 203.08" stroke="#2E353A" stroke-width="2" stroke-linecap="round" stroke-linejoin="round"/>
<path d="M195.746 260.656V185.706C195.746 185.706 198.882 166.106 188.69 166.106C178.498 166.106 179.282 176.298 191.042 187.274C202.802 198.25 220.834 188.058 223.186 179.434C225.538 170.81 219.266 166.89 215.346 173.946C211.426 181.002 215.346 260.97 215.346 260.97" stroke="#2E353A" stroke-width="2" stroke-linecap="round" stroke-linejoin="round"/>
<path d="M243.233 260.962H158.631V280.594H243.233V260.962Z" fill="white" stroke="#2E353A" stroke-width="2" stroke-linecap="round" stroke-linejoin="round"/>
<path d="M243.233 285.266H158.631V304.898H243.233V285.266Z" fill="white" stroke="#2E353A" stroke-width="2" stroke-linecap="round" stroke-linejoin="round"/>
<path d="M243.233 280.594H158.631V285.266H243.233V280.594Z" fill="#2E353A" stroke="#2E353A" stroke-linecap="round" stroke-linejoin="round"/>
<path d="M243.233 309.57H158.631V329.202H243.233V309.57Z" fill="white" stroke="#2E353A" stroke-width="2" stroke-linecap="round" stroke-linejoin="round"/>
<path d="M234.381 277.967H240.669" stroke="#2E353A" stroke-linecap="round" stroke-linejoin="round"/>
<path d="M161.955 277.967H231.355" stroke="#2E353A" stroke-linecap="round" stroke-linejoin="round"/>
<path d="M218.074 302.655H238.341" stroke="#2E353A" stroke-linecap="round" stroke-linejoin="round"/>
<path d="M174.515 302.655H215.746" stroke="#2E353A" stroke-linecap="round" stroke-linejoin="round"/>
<path d="M167.765 302.655H171.254" stroke="#2E353A" stroke-linecap="round" stroke-linejoin="round"/>
<path d="M243.233 304.898H158.631V309.57H243.233V304.898Z" fill="#2E353A" stroke="#2E353A" stroke-linecap="round" stroke-linejoin="round"/>
<path d="M198.607 313.874H169.646V328.951H198.607V313.874Z" fill="#F88F24" stroke="#2E353A" stroke-linecap="round" stroke-linejoin="round"/>
<path d="M236.294 313.874H207.333V328.951H236.294V313.874Z" fill="#F88F24" stroke="#2E353A" stroke-linecap="round" stroke-linejoin="round"/>
<path d="M262.347 329.202C256.796 324.333 233.096 303.863 226.196 303.33C219.438 302.789 195.448 323.494 188.956 329.202H262.347Z" fill="#2E353A" stroke="#2E353A" stroke-linecap="round" stroke-linejoin="round"/>
<path d="M353.847 329.202H360.652" stroke="#2E353A" stroke-linecap="round" stroke-linejoin="round"/>
<path d="M42.3325 329.202H347.042" stroke="#2E353A" stroke-linecap="round" stroke-linejoin="round"/>
<path d="M31.7485 329.202H37.0405" stroke="#2E353A" stroke-linecap="round" stroke-linejoin="round"/>
<path d="M340.151 284.459H319.806V312.996H328.234H340.151H348.587V298.728L340.151 284.459Z" fill="#2E353A" stroke="#2E353A" stroke-linecap="round" stroke-linejoin="round"/>
<path d="M348.586 312.996H339.265V319.48H348.586V312.996Z" fill="white" stroke="#2E353A" stroke-linecap="round" stroke-linejoin="round"/>
<path d="M304.682 312.675C304.682 312.675 314.874 307.187 311.346 279.747L298.41 272.691L276.066 269.163L256.074 269.947V281.315C256.074 281.315 267.442 291.115 268.618 294.251C269.356 296.397 269.753 298.646 269.794 300.915V311.891L304.682 312.675Z" fill="#F88F24" stroke="#2E353A" stroke-linecap="round" stroke-linejoin="round"/>
<path d="M311.346 279.747L304.682 312.675" stroke="#2E353A" stroke-linecap="round" stroke-linejoin="round"/>
<path d="M298.41 272.691L290.962 312.675" stroke="#2E353A" stroke-linecap="round" stroke-linejoin="round"/>
<path d="M276.067 269.163L270.579 298.955" stroke="#2E353A" stroke-linecap="round" stroke-linejoin="round"/>
<path d="M256.858 279.747C256.858 279.747 269.794 285.235 274.89 288.763C279.986 292.291 279.202 299.739 279.202 299.739" stroke="#2E353A" stroke-linecap="round" stroke-linejoin="round"/>
<path d="M319.986 313.2H259.203V318.296H319.986V313.2Z" fill="white" stroke="#2E353A" stroke-linecap="round" stroke-linejoin="round"/>
<path d="M332.123 300.131H344.816L338.003 288.371H332.123V300.131Z" fill="white" stroke="#2E353A" stroke-linecap="round" stroke-linejoin="round"/>
<path d="M330.163 288.371H324.675V300.131H330.163V288.371Z" fill="white" stroke="#2E353A" stroke-linecap="round" stroke-linejoin="round"/>
<path d="M296.529 312.996H259.524V321.832H296.529V312.996Z" fill="white" stroke="#2E353A" stroke-linecap="round" stroke-linejoin="round"/>
<path d="M331.585 329.059C335.816 328.294 338.626 324.245 337.862 320.013C337.097 315.782 333.048 312.972 328.817 313.736C324.586 314.501 321.775 318.55 322.539 322.781C323.304 327.012 327.353 329.823 331.585 329.059Z" fill="#2E353A" stroke="#2E353A" stroke-linecap="round" stroke-linejoin="round"/>
<path d="M330.186 325.964C332.693 325.964 334.725 323.931 334.725 321.424C334.725 318.917 332.693 316.885 330.186 316.885C327.679 316.885 325.646 318.917 325.646 321.424C325.646 323.931 327.679 325.964 330.186 325.964Z" fill="white" stroke="#2E353A" stroke-linecap="round" stroke-linejoin="round"/>
<path d="M271.583 329.075C275.817 328.325 278.641 324.286 277.892 320.052C277.142 315.818 273.102 312.994 268.869 313.743C264.635 314.493 261.81 318.533 262.56 322.766C263.309 327 267.349 329.825 271.583 329.075Z" fill="#2E353A" stroke="#2E353A" stroke-linecap="round" stroke-linejoin="round"/>
<path d="M270.21 325.964C272.717 325.964 274.749 323.931 274.749 321.424C274.749 318.917 272.717 316.885 270.21 316.885C267.703 316.885 265.671 318.917 265.671 321.424C265.671 323.931 267.703 325.964 270.21 325.964Z" fill="white" stroke="#2E353A" stroke-linecap="round" stroke-linejoin="round"/>
<path d="M294.272 327.125C297.439 324.217 297.649 319.292 294.741 316.125C291.833 312.958 286.908 312.749 283.741 315.657C280.574 318.565 280.364 323.49 283.272 326.657C286.18 329.823 291.105 330.033 294.272 327.125Z" fill="#2E353A" stroke="#2E353A" stroke-linecap="round" stroke-linejoin="round"/>
<path d="M289.003 325.964C291.51 325.964 293.542 323.931 293.542 321.424C293.542 318.917 291.51 316.885 289.003 316.885C286.495 316.885 284.463 318.917 284.463 321.424C284.463 323.931 286.495 325.964 289.003 325.964Z" fill="white" stroke="#2E353A" stroke-linecap="round" stroke-linejoin="round"/>
<path d="M286.454 299.347H266.854C265.447 299.347 264.306 300.488 264.306 301.895V310.127C264.306 311.534 265.447 312.675 266.854 312.675H286.454C287.862 312.675 289.002 311.534 289.002 310.127V301.895C289.002 300.488 287.862 299.347 286.454 299.347Z" fill="#2E353A" stroke="#2E353A" stroke-linecap="round" stroke-linejoin="round"/>
<path d="M254.506 312.675V273.906H262.346V312.675" stroke="#2E353A" stroke-linecap="round" stroke-linejoin="round"/>
<path d="M254.561 279.041H262.26" stroke="#2E353A" stroke-linecap="round" stroke-linejoin="round"/>
<path d="M254.561 285.094H262.26" stroke="#2E353A" stroke-linecap="round" stroke-linejoin="round"/>
<path d="M254.561 291.146H262.26" stroke="#2E353A" stroke-linecap="round" stroke-linejoin="round"/>
<path d="M254.561 297.207H262.26" stroke="#2E353A" stroke-linecap="round" stroke-linejoin="round"/>
<path d="M254.561 303.259H262.26" stroke="#2E353A" stroke-linecap="round" stroke-linejoin="round"/>
<path d="M254.561 309.312H262.26" stroke="#2E353A" stroke-linecap="round" stroke-linejoin="round"/>
<path d="M97.6987 329.962H83.5867V83.7861L97.6987 100.195V329.962Z" stroke="#2E353A" stroke-linecap="round" stroke-linejoin="round"/>
<path d="M83.7278 278.218H97.5654L83.7278 264.835H97.5654L83.7278 278.218Z" stroke="#2E353A" stroke-linecap="round" stroke-linejoin="round"/>
<path d="M83.7278 264.498H97.5654L83.7278 251.115H97.5654L83.7278 264.498Z" stroke="#2E353A" stroke-linecap="round" stroke-linejoin="round"/>
<path d="M83.7278 250.778H97.5654L83.7278 237.395H97.5654L83.7278 250.778Z" stroke="#2E353A" stroke-linecap="round" stroke-linejoin="round"/>
<path d="M83.7278 237.058H97.5654L83.7278 223.675H97.5654L83.7278 237.058Z" stroke="#2E353A" stroke-linecap="round" stroke-linejoin="round"/>
<path d="M83.7278 223.338H97.5654L83.7278 209.955H97.5654L83.7278 223.338Z" stroke="#2E353A" stroke-linecap="round" stroke-linejoin="round"/>
<path d="M83.7278 209.618H97.5654L83.7278 196.235H97.5654L83.7278 209.618Z" stroke="#2E353A" stroke-linecap="round" stroke-linejoin="round"/>
<path d="M83.7278 195.898H97.5654L83.7278 182.515H97.5654L83.7278 195.898Z" stroke="#2E353A" stroke-linecap="round" stroke-linejoin="round"/>
<path d="M83.7278 182.178H97.5654L83.7278 168.795H97.5654L83.7278 182.178Z" stroke="#2E353A" stroke-linecap="round" stroke-linejoin="round"/>
<path d="M83.7278 168.458H97.5654L83.7278 155.075H97.5654L83.7278 168.458Z" stroke="#2E353A" stroke-linecap="round" stroke-linejoin="round"/>
<path d="M83.7278 154.738H97.5654L83.7278 141.355H97.5654L83.7278 154.738Z" stroke="#2E353A" stroke-linecap="round" stroke-linejoin="round"/>
<path d="M83.7278 141.018H97.5654L83.7278 127.635H97.5654L83.7278 141.018Z" stroke="#2E353A" stroke-linecap="round" stroke-linejoin="round"/>
<path d="M83.7278 127.298H97.5654L83.7278 113.915H97.5654L83.7278 127.298Z" stroke="#2E353A" stroke-linecap="round" stroke-linejoin="round"/>
<path d="M83.7278 113.578H97.5654L83.7278 100.195H97.5654L83.7278 113.578Z" stroke="#2E353A" stroke-linecap="round" stroke-linejoin="round"/>
<path d="M163.217 113.947L156.381 109.642H107.593L101.634 113.947H163.217Z" stroke="#2E353A" stroke-linecap="round" stroke-linejoin="round"/>
<path d="M164.346 113.578H45.1785V116.714H164.346V113.578Z" fill="#2E353A" stroke="#2E353A" stroke-linecap="round" stroke-linejoin="round"/>
<path d="M156.381 109.642L83.5867 83.7861L107.593 109.642" stroke="#2E353A" stroke-linecap="round" stroke-linejoin="round"/>
<path d="M83.5945 83.7861L45.1785 113.578" stroke="#2E353A" stroke-linecap="round" stroke-linejoin="round"/>
<path d="M107.899 120.242H78.4985V139.058H107.899V120.242Z" fill="#2E353A" stroke="#2E353A" stroke-linecap="round" stroke-linejoin="round"/>
<path d="M101.768 124.162H84.6216V129.65H101.768V124.162Z" fill="white" stroke="#2E353A" stroke-linecap="round" stroke-linejoin="round"/>
<path d="M164.346 116.714V150.52" stroke="#2E353A" stroke-linecap="round" stroke-linejoin="round"/>
<path d="M168.815 162.068H160.105V171.939H168.815V162.068Z" fill="#2E353A" stroke="#2E353A" stroke-linecap="round" stroke-linejoin="round"/>
<path d="M160.105 162.069L164.464 149.877L168.823 162.069" stroke="#2E353A" stroke-linecap="round" stroke-linejoin="round"/>
<path d="M140.85 281.182L159.666 310.927L164.37 307.485L150.524 279.794C149.902 278.549 148.945 277.502 147.761 276.771C146.577 276.04 145.213 275.653 143.821 275.654V275.654C143.182 275.666 142.558 275.848 142.013 276.181C141.468 276.514 141.021 276.986 140.718 277.548C140.415 278.111 140.268 278.744 140.291 279.383C140.315 280.021 140.507 280.642 140.85 281.182V281.182Z" fill="#F88F24" stroke="#2E353A" stroke-linecap="round" stroke-linejoin="round"/>
<path d="M162.716 303.612L143.359 317.379C143.359 317.379 145.084 324.686 156.264 324.255C167.443 323.823 167.02 312.212 167.02 312.212L162.716 303.612Z" fill="#2E353A" stroke="white" stroke-linecap="round" stroke-linejoin="round"/>
<path d="M108.949 294.58L144.009 278.783C145.166 278.262 146.465 278.154 147.692 278.475C148.919 278.796 149.998 279.527 150.752 280.547V280.547C151.192 281.142 151.508 281.82 151.682 282.54C151.856 283.26 151.884 284.007 151.764 284.738C151.644 285.469 151.379 286.168 150.984 286.795C150.59 287.422 150.073 287.963 149.466 288.387L111.105 315.239L108.949 294.58Z" fill="#F88F24" stroke="#2E353A" stroke-linecap="round" stroke-linejoin="round"/>
<path d="M103.79 313.937H67.6558V319.527H103.79V313.937Z" fill="white" stroke="#2E353A" stroke-linecap="round" stroke-linejoin="round"/>
<path d="M86.1504 298.022H54.7512V310.927H86.1504V298.022Z" fill="#2E353A" stroke="#2E353A" stroke-linecap="round" stroke-linejoin="round"/>
<path d="M82.0656 283.393H108.722C109.345 283.393 109.944 283.64 110.385 284.081C110.826 284.523 111.074 285.121 111.074 285.745V310.911H79.7058V285.745C79.7058 285.435 79.7669 285.129 79.8856 284.843C80.0043 284.557 80.1782 284.297 80.3975 284.079C80.6167 283.86 80.8769 283.687 81.1632 283.569C81.4494 283.452 81.7561 283.392 82.0656 283.393V283.393Z" fill="#F88F24" stroke="#2E353A" stroke-linecap="round" stroke-linejoin="round"/>
<path d="M54.4297 329.202H105.837C107.46 329.202 109.018 328.557 110.166 327.408C111.314 326.26 111.96 324.703 111.96 323.079C111.96 321.454 111.315 319.896 110.167 318.746C109.019 317.597 107.461 316.95 105.837 316.948H54.4297C52.805 316.95 51.2476 317.597 50.0996 318.746C48.9515 319.896 48.3066 321.454 48.3066 323.079V323.079C48.3066 324.703 48.9517 326.26 50.1 327.408C51.2483 328.557 52.8057 329.202 54.4297 329.202Z" fill="#2E353A" stroke="#2E353A" stroke-linecap="round" stroke-linejoin="round"/>
<path d="M62.1756 329.202H113.575C115.199 329.202 116.757 328.557 117.907 327.409C119.057 326.261 119.703 324.703 119.705 323.079C119.705 321.453 119.06 319.893 117.91 318.743C116.76 317.594 115.201 316.948 113.575 316.948H62.1756C60.5495 316.948 58.9901 317.594 57.8404 318.743C56.6906 319.893 56.0447 321.453 56.0447 323.079C56.0468 324.703 56.6936 326.261 57.8431 327.409C58.9927 328.557 60.5509 329.202 62.1756 329.202Z" fill="white" stroke="#2E353A" stroke-linecap="round" stroke-linejoin="round"/>
<path d="M111.097 310.927H54.7512V315.231H111.097V310.927Z" fill="white" stroke="#2E353A" stroke-linecap="round" stroke-linejoin="round"/>
<path d="M66.3699 323.079C66.3699 323.845 66.1428 324.593 65.7172 325.23C65.2917 325.867 64.6868 326.364 63.9791 326.657C63.2714 326.95 62.4927 327.027 61.7414 326.877C60.9901 326.728 60.3 326.359 59.7584 325.817C59.2167 325.276 58.8479 324.586 58.6984 323.834C58.549 323.083 58.6257 322.304 58.9188 321.597C59.212 320.889 59.7084 320.284 60.3453 319.858C60.9822 319.433 61.731 319.206 62.497 319.206C63.5242 319.206 64.5093 319.614 65.2356 320.34C65.9619 321.066 66.3699 322.051 66.3699 323.079V323.079Z" fill="#2E353A" stroke="#2E353A" stroke-linecap="round" stroke-linejoin="round"/>
<path d="M72.8224 326.952C74.9614 326.952 76.6954 325.218 76.6954 323.079C76.6954 320.94 74.9614 319.206 72.8224 319.206C70.6834 319.206 68.9495 320.94 68.9495 323.079C68.9495 325.218 70.6834 326.952 72.8224 326.952Z" fill="#2E353A" stroke="#2E353A" stroke-linecap="round" stroke-linejoin="round"/>
<path d="M83.1398 326.952C85.2788 326.952 87.0128 325.218 87.0128 323.079C87.0128 320.94 85.2788 319.206 83.1398 319.206C81.0008 319.206 79.2668 320.94 79.2668 323.079C79.2668 325.218 81.0008 326.952 83.1398 326.952Z" fill="#2E353A" stroke="#2E353A" stroke-linecap="round" stroke-linejoin="round"/>
<path d="M97.338 323.079C97.338 323.845 97.1108 324.593 96.6852 325.23C96.2597 325.867 95.6548 326.364 94.9471 326.657C94.2394 326.95 93.4607 327.027 92.7094 326.877C91.9581 326.728 91.2681 326.359 90.7264 325.817C90.1848 325.276 89.8159 324.586 89.6665 323.834C89.517 323.083 89.5937 322.304 89.8869 321.597C90.18 320.889 90.6764 320.284 91.3133 319.858C91.9502 319.433 92.699 319.206 93.465 319.206C94.4922 319.206 95.4773 319.614 96.2036 320.34C96.9299 321.066 97.338 322.051 97.338 323.079V323.079Z" fill="#2E353A" stroke="#2E353A" stroke-linecap="round" stroke-linejoin="round"/>
<path d="M107.663 323.079C107.663 323.845 107.436 324.593 107.01 325.23C106.585 325.867 105.98 326.364 105.272 326.657C104.565 326.95 103.786 327.027 103.035 326.877C102.283 326.728 101.593 326.359 101.052 325.817C100.51 325.276 100.141 324.586 99.9917 323.834C99.8422 323.083 99.9189 322.304 100.212 321.597C100.505 320.889 101.002 320.284 101.638 319.858C102.275 319.433 103.024 319.206 103.79 319.206C104.817 319.206 105.802 319.614 106.529 320.34C107.255 321.066 107.663 322.051 107.663 323.079V323.079Z" fill="#2E353A" stroke="#2E353A" stroke-linecap="round" stroke-linejoin="round"/>
<path d="M117.981 323.079C117.981 323.845 117.753 324.594 117.328 325.231C116.902 325.868 116.296 326.365 115.588 326.658C114.88 326.95 114.101 327.027 113.349 326.877C112.598 326.727 111.908 326.357 111.366 325.814C110.825 325.272 110.457 324.581 110.308 323.829C110.16 323.078 110.238 322.299 110.532 321.591C110.826 320.884 111.324 320.279 111.962 319.855C112.6 319.43 113.349 319.204 114.116 319.206C114.624 319.206 115.127 319.306 115.597 319.501C116.066 319.695 116.492 319.981 116.851 320.341C117.211 320.7 117.495 321.127 117.689 321.597C117.883 322.067 117.982 322.57 117.981 323.079V323.079Z" fill="#2E353A" stroke="#2E353A" stroke-linecap="round" stroke-linejoin="round"/>
<path d="M148.094 283.393C148.094 282.966 147.968 282.549 147.73 282.194C147.493 281.839 147.156 281.563 146.761 281.4C146.367 281.237 145.933 281.195 145.515 281.279C145.096 281.362 144.712 281.569 144.411 281.871C144.11 282.173 143.905 282.558 143.823 282.977C143.74 283.396 143.784 283.829 143.949 284.223C144.113 284.617 144.391 284.953 144.746 285.189C145.102 285.425 145.519 285.55 145.946 285.549C146.229 285.549 146.509 285.493 146.77 285.384C147.031 285.276 147.268 285.117 147.468 284.917C147.667 284.716 147.825 284.479 147.933 284.217C148.04 283.956 148.095 283.675 148.094 283.393Z" fill="#2E353A" stroke="#2E353A" stroke-linecap="round" stroke-linejoin="round"/>
<path d="M106.37 286.834H83.571V300.601H106.37V286.834Z" fill="white" stroke="#2E353A" stroke-linecap="round" stroke-linejoin="round"/>
<path d="M106.37 286.834H93.8962V300.601H106.37V286.834Z" fill="white" stroke="#2E353A" stroke-linecap="round" stroke-linejoin="round"/>
</svg>
