<svg width="133" height="45" viewBox="0 0 133 45" fill="none" xmlns="http://www.w3.org/2000/svg">
<path d="M56.5983 23.0772C56.5983 29.3234 51.7135 33.9261 45.7187 33.9261C39.7239 33.9261 34.8391 29.3234 34.8391 23.0772C34.8391 16.787 39.7239 12.2283 45.7187 12.2283C51.7135 12.2283 56.5983 16.787 56.5983 23.0772ZM51.8357 23.0772C51.8357 19.1739 49.0046 16.5033 45.7187 16.5033C42.4328 16.5033 39.6017 19.1739 39.6017 23.0772C39.6017 26.9413 42.4328 29.6511 45.7187 29.6511C49.0046 29.6511 51.8357 26.9364 51.8357 23.0772Z" fill="#fff"/>
<path d="M80.0689 23.0772C80.0689 29.3234 75.1841 33.9261 69.1893 33.9261C63.1945 33.9261 58.3097 29.3234 58.3097 23.0772C58.3097 16.7919 63.1945 12.2283 69.1893 12.2283C75.1841 12.2283 80.0689 16.787 80.0689 23.0772ZM75.3063 23.0772C75.3063 19.1739 72.4752 16.5033 69.1893 16.5033C65.9034 16.5033 63.0723 19.1739 63.0723 23.0772C63.0723 26.9413 65.9034 29.6511 69.1893 29.6511C72.4752 29.6511 75.3063 26.9364 75.3063 23.0772Z" fill="#fff"/>
<path d="M102.562 12.8837V32.3609C102.562 40.3728 97.8381 43.6451 92.254 43.6451C86.9976 43.6451 83.834 40.1283 82.6409 37.2522L86.7874 35.5256C87.5257 37.2913 89.3349 39.375 92.2492 39.375C95.8235 39.375 98.0386 37.169 98.0386 33.0163V31.456H97.8723C96.8064 32.7717 94.7527 33.9212 92.1611 33.9212C86.7384 33.9212 81.7705 29.1962 81.7705 23.1163C81.7705 16.9924 86.7384 12.2283 92.1611 12.2283C94.7478 12.2283 96.8015 13.3777 97.8723 14.6544H98.0386V12.8886H102.562V12.8837ZM98.376 23.1163C98.376 19.2962 95.8284 16.5033 92.5865 16.5033C89.3007 16.5033 86.5478 19.2962 86.5478 23.1163C86.5478 26.8973 89.3007 29.6511 92.5865 29.6511C95.8284 29.6511 98.376 26.8973 98.376 23.1163Z" fill="#fff"/>
<path d="M110.018 1.46729V33.2608H105.373V1.46729H110.018Z" fill="#fff"/>
<path d="M128.12 26.6478L131.817 29.1131C130.624 30.8788 127.748 33.9212 122.781 33.9212C116.62 33.9212 112.018 29.1571 112.018 23.0723C112.018 16.6207 116.659 12.2234 122.248 12.2234C127.876 12.2234 130.629 16.7038 131.528 19.125L132.022 20.3576L117.524 26.3642C118.634 28.5408 120.36 29.6511 122.781 29.6511C125.206 29.6511 126.888 28.4576 128.12 26.6478ZM116.742 22.7446L126.433 18.719C125.9 17.3641 124.296 16.4201 122.409 16.4201C119.989 16.4201 116.62 18.5576 116.742 22.7446V22.7446Z" fill="#fff"/>
<path d="M17.2558 20.255V15.6523H32.761C32.9126 16.4544 32.9908 17.4033 32.9908 18.4305C32.9908 21.8838 32.0471 26.1539 29.0057 29.1963C26.0475 32.2778 22.2677 33.9213 17.2607 33.9213C7.98 33.9213 0.176025 26.3593 0.176025 17.0756C0.176025 7.79194 7.98 0.22998 17.2607 0.22998C22.3948 0.22998 26.0523 2.2452 28.8004 4.87183L25.5536 8.11965C23.583 6.27074 20.9133 4.8327 17.2558 4.8327C10.4786 4.8327 5.17819 10.2963 5.17819 17.0756C5.17819 23.855 10.4786 29.3186 17.2558 29.3186C21.6516 29.3186 24.1551 27.5528 25.759 25.9485C27.0596 24.6474 27.9153 22.7887 28.2527 20.2501L17.2558 20.255V20.255Z" fill="#fff"/>
</svg>
