<svg width="393" height="392" viewBox="0 0 393 392" fill="none" xmlns="http://www.w3.org/2000/svg">
<path d="M261.943 27.1107C261.943 27.1107 201.261 5.53505 141.701 39.8899C82.1402 74.2448 52.0659 142.429 26.2567 197.051C0.447382 251.672 15.2807 307.242 60.7527 332.573C106.225 357.904 137.138 320.562 200.924 318.743C264.71 316.924 281.888 326.042 334.855 290.009C387.822 253.977 397.347 168.874 355.599 105.911C313.851 42.9475 261.943 27.1107 261.943 27.1107Z" fill="#F88F24"/>
<path opacity="0.7" d="M261.943 27.1107C261.943 27.1107 201.261 5.53505 141.701 39.8899C82.1402 74.2448 52.0659 142.429 26.2567 197.051C0.447382 251.672 15.2807 307.242 60.7527 332.573C106.225 357.904 137.138 320.562 200.924 318.743C264.71 316.924 281.888 326.042 334.855 290.009C387.822 253.977 397.347 168.874 355.599 105.911C313.851 42.9475 261.943 27.1107 261.943 27.1107Z" fill="white"/>
<path d="M32.1759 222.107C32.1759 222.107 33.6341 224.875 32.3405 227.47C31.0469 230.065 29.4162 232.668 30.3884 233.969C31.3605 235.271 34.3084 236.893 33.9634 239.653C33.6185 242.413 29.7377 247.94 32.1759 251.029C34.6141 254.118 38.6753 253.953 38.8399 257.364C39.0045 260.774 34.9199 263.534 36.0724 266.623C37.2249 269.712 43.9124 270.362 43.9124 272.471C43.9124 274.58 41.3095 276.862 43.4263 279.135C45.5431 281.409 55.7508 287.344 57.1777 284.906C58.6045 282.467 61.5837 275.725 59.6473 266.152C59.318 264.545 57.0287 264.185 56.7073 261.911C56.3858 259.637 57.358 255.576 55.7351 253.287C54.1122 250.998 48.9065 250.198 48.585 248.41C48.2636 246.623 50.5293 242.24 48.2557 239.481C45.9821 236.721 40.6196 235.435 40.6196 233.632C40.6196 231.829 42.2503 229.571 39.9767 227.133C37.7031 224.694 32.1759 222.107 32.1759 222.107Z" fill="#F88F24"/>
<path d="M39.9531 241.253C43.34 251.445 49.267 265.298 51.6739 271.985C54.5982 280.108 57.1619 285.988 58.4398 294.11C59.7178 302.232 60.4547 356.634 60.4547 356.634" stroke="#263238" stroke-linecap="round" stroke-linejoin="round"/>
<path d="M33.0149 223.087C33.0149 223.087 35.7746 225.361 38.2128 235.271C38.3696 235.906 38.5499 236.58 38.7459 237.293" stroke="#263238" stroke-linecap="round" stroke-linejoin="round"/>
<path d="M82.9555 240.617C82.6249 241.282 82.4425 242.01 82.4209 242.752C82.3992 243.494 82.5388 244.231 82.8301 244.914C83.8649 246.991 85.1821 249.069 84.3981 250.112C83.6141 251.154 81.2621 252.464 81.5365 254.659C81.8109 256.854 84.9155 261.292 82.9633 263.761C81.0112 266.231 77.7654 266.113 77.6321 268.834C77.4989 271.554 80.7681 273.773 79.843 276.242C78.9179 278.712 73.571 279.237 73.571 280.946C73.571 282.656 75.6565 284.459 73.963 286.278C72.2696 288.096 64.116 292.824 62.9478 290.864C61.7797 288.904 59.4277 283.518 60.9721 275.858C61.2309 274.572 63.0654 274.29 63.3241 272.464C63.5829 270.637 62.8067 267.391 64.1081 265.572C65.4096 263.753 69.5961 263.103 69.8235 261.652C70.0509 260.202 68.2555 256.713 70.0822 254.502C71.9089 252.291 76.1974 251.248 76.1974 249.798C76.1974 248.348 74.896 246.544 76.7149 244.592C78.5337 242.64 82.9555 240.617 82.9555 240.617Z" fill="#F88F24"/>
<path d="M76.7307 255.937C74.0259 264.114 69.2827 275.184 67.3227 280.531C64.9707 287.038 62.948 291.742 61.9131 298.241C60.8782 304.741 60.3059 348.276 60.3059 348.276" stroke="#263238" stroke-linecap="round" stroke-linejoin="round"/>
<path d="M82.3049 241.401C82.3049 241.401 80.094 243.22 78.1497 251.154C78.0243 251.664 77.8753 252.205 77.7185 252.769" stroke="#263238" stroke-linecap="round" stroke-linejoin="round"/>
<path d="M38.2519 277.434C38.5271 277.988 38.6793 278.595 38.6983 279.214C38.7172 279.832 38.6024 280.447 38.3616 281.017C37.4914 282.757 36.4016 284.49 37.0524 285.36C37.7031 286.231 39.6631 287.32 39.4436 289.163C39.224 291.005 36.6212 294.706 38.2519 296.768C39.8826 298.829 42.5952 298.72 42.705 301.001C42.8148 303.283 40.0708 305.133 40.8548 307.195C41.6388 309.257 46.0684 309.696 46.0684 311.115C46.0684 312.534 44.3357 314.047 45.7469 315.568C47.1581 317.089 53.9867 321.056 54.9667 319.425C55.9467 317.794 57.9146 313.286 56.6131 306.881C56.4015 305.807 54.8727 305.564 54.6531 304.043C54.4336 302.522 55.0843 299.809 54.0024 298.288C52.9205 296.768 49.4395 296.227 49.22 295.027C49.0005 293.828 50.5215 290.903 49.0005 289.053C47.4795 287.203 43.8967 286.34 43.8967 285.133C43.8967 283.926 44.9864 282.412 43.4655 280.782C41.9445 279.151 38.2519 277.434 38.2519 277.434Z" fill="#F88F24"/>
<path d="M43.4497 290.237C45.7155 297.065 49.6747 306.309 51.2897 310.778C53.2497 316.211 54.951 320.186 55.8134 325.572C56.6758 330.958 57.1619 351.161 57.1619 351.161" stroke="#263238" stroke-linecap="round" stroke-linejoin="round"/>
<path d="M38.793 278.085C38.793 278.085 40.6432 279.606 42.2661 286.231C42.3758 286.662 42.4934 287.109 42.6267 287.579" stroke="#263238" stroke-linecap="round" stroke-linejoin="round"/>
<path d="M94.1668 274.729C93.7707 275.205 93.4828 275.762 93.3231 276.36C93.1633 276.959 93.1355 277.584 93.2417 278.195C93.6886 280.084 94.355 282.02 93.5161 282.718C92.6772 283.416 90.5369 284.028 90.3252 285.854C90.1135 287.681 91.807 291.891 89.7451 293.53C87.6831 295.168 85.041 294.431 84.4374 296.666C83.8337 298.9 86.0054 301.276 84.8215 303.11C83.6377 304.945 79.1767 304.349 78.8474 305.729C78.5182 307.108 79.8745 308.974 78.1497 310.135C76.4249 311.295 68.8985 313.6 68.2948 311.773C67.6911 309.947 66.8366 305.125 69.557 299.19C70.0196 298.194 71.5641 298.312 72.1207 296.877C72.6774 295.443 72.6695 292.659 74.0729 291.428C75.4762 290.198 78.9886 290.456 79.4746 289.343C79.9607 288.23 79.1454 285.031 81.0426 283.581C82.9399 282.13 86.6326 282.107 86.907 280.939C87.1814 279.77 86.4679 278.053 88.326 276.815C90.1841 275.576 94.1668 274.729 94.1668 274.729Z" fill="#F88F24"/>
<path d="M86.2091 285.995C82.4459 292.126 76.4718 300.225 73.8846 304.208C70.7486 309.045 66.9619 312.142 66.0916 317.575C65.2214 323.008 64.751 343.165 64.751 343.165" stroke="#263238" stroke-linecap="round" stroke-linejoin="round"/>
<path d="M93.5239 275.239C93.5239 275.239 91.3757 276.297 88.2789 282.373C88.0751 282.765 87.8556 283.157 87.6125 283.604" stroke="#263238" stroke-linecap="round" stroke-linejoin="round"/>
<path d="M55.6175 362.757H67.699C74.0572 359.48 78.573 351.185 78.573 341.456C78.6763 335.622 76.8946 329.912 73.4927 325.172H49.8238C46.433 329.915 44.6624 335.626 44.7748 341.456C44.7748 351.185 49.2593 359.48 55.6175 362.757Z" fill="white" stroke="#263238" stroke-linecap="round" stroke-linejoin="round"/>
<path d="M67.9184 362.757H55.6174V364.56H67.9184V362.757Z" fill="white" stroke="#263238" stroke-linecap="round" stroke-linejoin="round"/>
<path d="M235.585 58.8H43.0029V204.561H235.585V58.8Z" stroke="#263238" stroke-linecap="round" stroke-linejoin="round"/>
<path d="M231.084 62.6651H47.4951V200.704H231.084V62.6651Z" stroke="#263238" stroke-linecap="round" stroke-linejoin="round"/>
<path d="M103.457 82.9237C103.457 82.9237 73.4612 80.752 70.9367 85.456C68.4123 90.16 70.2076 176.165 71.658 177.247C73.1084 178.329 113.578 179.05 117.553 177.607C121.528 176.165 116.119 88.7018 116.119 86.1695C116.119 83.6371 106.711 82.5552 106.711 82.5552" stroke="#263238" stroke-width="2" stroke-linecap="round" stroke-linejoin="round"/>
<path d="M74.0337 154.111C74.0964 165.448 74.3395 173.758 74.9118 173.985C76.715 174.707 115.021 177.96 116.103 174.346C117.185 170.732 113.21 89.0624 113.21 89.0624" stroke="#263238" stroke-width="2" stroke-linecap="round" stroke-linejoin="round"/>
<path d="M111.767 88.7018C111.767 88.7018 75.2723 87.2592 74.9195 89.0624C74.6843 90.2149 74.0179 124.076 74.0257 148.693" stroke="#263238" stroke-width="2" stroke-linecap="round" stroke-linejoin="round"/>
<path d="M75.9937 95.209H111.407" stroke="#263238" stroke-width="2" stroke-linecap="round" stroke-linejoin="round"/>
<path d="M108.153 93.5704C105.989 95.8597 108.153 93.5704 109.604 90.3011C111.054 87.0318 108.153 90.9518 104.9 93.5704C101.646 96.1889 103.457 94.2289 104.539 90.6304C105.621 87.0318 103.457 90.6304 100.564 92.9197C97.6713 95.2089 99.1217 94.229 100.204 90.3011C101.285 86.3733 100.204 90.3011 95.8681 92.9197C91.5325 95.5382 93.6964 95.5304 95.8681 91.6104C98.0397 87.6904 94.4255 91.6104 90.4506 92.9197C86.4757 94.2289 90.4506 92.9197 91.8932 89.3211C93.3357 85.7226 89.3609 90.3011 86.4757 92.2611C83.5906 94.2211 86.4757 92.2611 87.197 89.9718C87.9183 87.6826 85.386 90.6304 82.493 93.5704C79.6001 96.5104 82.493 93.5704 82.8537 90.9518C83.2143 88.3333 79.6001 95.209 79.6001 95.209C79.6001 95.209 80.682 88.6626 79.9607 90.3011C79.4796 91.3516 78.8714 92.3389 78.1497 93.2411" stroke="#F88F24" stroke-width="2" stroke-linecap="round" stroke-linejoin="round"/>
<path d="M95.5074 101.348H77.7969V119.78H95.5074V101.348Z" stroke="#F88F24" stroke-width="2" stroke-linecap="round" stroke-linejoin="round"/>
<path d="M81.4111 101.348L78.526 104.601L84.6647 102.437L78.526 108.216L88.6396 101.708L78.526 112.551L92.2538 102.437L77.7969 115.805L95.1468 103.88L77.7969 119.78L95.1468 108.216L82.8615 119.058L95.5074 112.19L87.5577 118.698L95.1468 116.165L93.6964 118.698" stroke="#F88F24" stroke-width="2" stroke-linecap="round" stroke-linejoin="round"/>
<path d="M110.772 157.725H97.2322V171.821H110.772V157.725Z" stroke="#F88F24" stroke-width="2" stroke-linecap="round" stroke-linejoin="round"/>
<path d="M99.9919 157.725L97.781 160.21L102.477 158.556L97.781 162.978L105.519 158L97.781 166.294L108.279 158.556L97.2322 168.78L110.49 159.662L97.2322 171.821L110.49 162.978L101.097 171.265L110.772 166.012L104.688 170.99L110.49 169.054L109.384 170.99" stroke="#F88F24" stroke-width="2" stroke-linecap="round" stroke-linejoin="round"/>
<path d="M77.4363 126.647H112.128" stroke="#263238" stroke-width="2" stroke-linecap="round" stroke-linejoin="round"/>
<path d="M77.0754 129.901L111.407 130.262" stroke="#263238" stroke-width="2" stroke-linecap="round" stroke-linejoin="round"/>
<path d="M99.1216 102.437H110.325" stroke="#263238" stroke-width="2" stroke-linecap="round" stroke-linejoin="round"/>
<path d="M99.1216 106.773H110.325" stroke="#263238" stroke-width="2" stroke-linecap="round" stroke-linejoin="round"/>
<path d="M99.1216 111.108H110.325" stroke="#263238" stroke-width="2" stroke-linecap="round" stroke-linejoin="round"/>
<path d="M99.1216 115.444H110.325" stroke="#263238" stroke-width="2" stroke-linecap="round" stroke-linejoin="round"/>
<path d="M111.407 132.065H77.7969V148.325H111.407V132.065Z" stroke="#F88F24" stroke-width="2" stroke-linecap="round" stroke-linejoin="round"/>
<path d="M77.4361 135.318L82.1323 132.425L76.7148 140.736L85.7465 132.425L77.7968 144.358L91.8931 132.065L79.6078 146.522L94.7861 132.425L83.222 146.522L99.8429 132.065L86.4757 147.964L103.096 132.425L90.4505 147.243L107.432 132.065L94.4254 147.964L111.407 132.065L99.1216 147.604L110.686 137.49L103.096 146.882L110.686 141.826L109.196 144.24L107.793 146.522" stroke="#F88F24" stroke-width="2" stroke-linecap="round" stroke-linejoin="round"/>
<path d="M79.2473 152.668H110.325" stroke="#263238" stroke-width="2" stroke-linecap="round" stroke-linejoin="round"/>
<path d="M78.5259 156.643H88.6395" stroke="#263238" stroke-width="2" stroke-linecap="round" stroke-linejoin="round"/>
<path d="M117.553 90.8734L142.359 87.8237" stroke="#263238" stroke-width="2" stroke-linecap="round" stroke-linejoin="round"/>
<path d="M113.579 108.576H139.592" stroke="#263238" stroke-width="2" stroke-linecap="round" stroke-linejoin="round"/>
<path d="M72.3794 141.465L61.176 145.44" stroke="#263238" stroke-width="2" stroke-linecap="round" stroke-linejoin="round"/>
<path d="M104.179 174.346C104.179 174.346 102.015 185.549 116.824 188.458" stroke="#263238" stroke-width="2" stroke-linecap="round" stroke-linejoin="round"/>
<path d="M114.661 185.549L118.275 188.803L113.21 190.245" stroke="#263238" stroke-width="2" stroke-linecap="round" stroke-linejoin="round"/>
<path d="M136.338 105.323L142.124 108.937L137.067 111.108" stroke="#263238" stroke-width="2" stroke-linecap="round" stroke-linejoin="round"/>
<path d="M137.663 86.7418L143.802 87.463L139.466 91.4379" stroke="#263238" stroke-width="2" stroke-linecap="round" stroke-linejoin="round"/>
<path d="M62.6187 141.826L56.48 146.882L64.0691 147.243" stroke="#263238" stroke-width="2" stroke-linecap="round" stroke-linejoin="round"/>
<path d="M157.663 105.323H143.927V119.78H157.663V105.323Z" fill="#F88F24"/>
<path d="M147.181 108.576L155.13 108.937" stroke="#263238" stroke-width="2" stroke-linecap="round" stroke-linejoin="round"/>
<path d="M147.181 111.469L155.13 111.83" stroke="#263238" stroke-width="2" stroke-linecap="round" stroke-linejoin="round"/>
<path d="M147.181 114.362L155.13 114.723" stroke="#263238" stroke-width="2" stroke-linecap="round" stroke-linejoin="round"/>
<path d="M135.819 124.801L122.178 126.411L123.873 140.768L137.514 139.158L135.819 124.801Z" fill="#F88F24"/>
<path d="M125.785 129.266L133.719 128.694" stroke="#263238" stroke-width="2" stroke-linecap="round" stroke-linejoin="round"/>
<path d="M126.123 132.135L134.057 131.563" stroke="#263238" stroke-width="2" stroke-linecap="round" stroke-linejoin="round"/>
<path d="M126.46 135.005L134.402 134.432" stroke="#263238" stroke-width="2" stroke-linecap="round" stroke-linejoin="round"/>
<path d="M64.6388 149.375L50.9978 150.985L52.692 165.342L66.3331 163.733L64.6388 149.375Z" fill="#F88F24"/>
<path d="M54.5903 153.837L62.5323 153.264" stroke="#263238" stroke-width="2" stroke-linecap="round" stroke-linejoin="round"/>
<path d="M54.9275 156.714L62.8694 156.141" stroke="#263238" stroke-width="2" stroke-linecap="round" stroke-linejoin="round"/>
<path d="M55.2725 159.583L63.2065 159.011" stroke="#263238" stroke-width="2" stroke-linecap="round" stroke-linejoin="round"/>
<path d="M135.614 179.454L121.955 178.002L120.426 192.378L134.085 193.83L135.614 179.454Z" fill="#F88F24"/>
<path d="M124.86 181.574L132.724 182.774" stroke="#263238" stroke-width="2" stroke-linecap="round" stroke-linejoin="round"/>
<path d="M124.555 184.452L132.418 185.651" stroke="#263238" stroke-width="2" stroke-linecap="round" stroke-linejoin="round"/>
<path d="M124.249 187.329L132.112 188.528" stroke="#263238" stroke-width="2" stroke-linecap="round" stroke-linejoin="round"/>
<path d="M235.577 204.561H43.0029V209.485H235.577V204.561Z" fill="#263238" stroke="#263238" stroke-linecap="round" stroke-linejoin="round"/>
<path d="M312.856 239.849V230.661H285.204V239.849C285.201 242.859 284.163 245.777 282.264 248.112L281.057 249.61H317.003L315.796 248.112C313.896 245.777 312.858 242.859 312.856 239.849Z" fill="#263238" stroke="#263238" stroke-linecap="round" stroke-linejoin="round"/>
<path d="M311.288 239.849V230.661H283.636V239.849C283.633 242.859 282.595 245.777 280.696 248.112L279.489 249.61H315.435L314.228 248.112C312.328 245.777 311.29 242.859 311.288 239.849V239.849Z" fill="white" stroke="#263238" stroke-linecap="round" stroke-linejoin="round"/>
<path d="M311.507 233.256H283.746V236.07H311.507V233.256Z" fill="#263238"/>
<path d="M346.379 151.947H248.536C244.864 151.947 241.888 154.924 241.888 158.595V226.905C241.888 230.577 244.864 233.554 248.536 233.554H346.379C350.051 233.554 353.028 230.577 353.028 226.905V158.595C353.028 154.924 350.051 151.947 346.379 151.947Z" fill="#263238" stroke="#263238" stroke-linecap="round" stroke-linejoin="round"/>
<path d="M349.367 151.947H251.523C247.852 151.947 244.875 154.924 244.875 158.595V226.905C244.875 230.577 247.852 233.554 251.523 233.554H349.367C353.038 233.554 356.015 230.577 356.015 226.905V158.595C356.015 154.924 353.038 151.947 349.367 151.947Z" fill="#263238" stroke="#263238" stroke-linecap="round" stroke-linejoin="round"/>
<path d="M241.888 220.868H353.036V226.905C353.036 228.669 352.335 230.36 351.088 231.606C349.842 232.853 348.151 233.554 346.387 233.554H248.544C246.781 233.554 245.09 232.853 243.843 231.606C242.596 230.36 241.896 228.669 241.896 226.905V220.868H241.888Z" fill="white" stroke="#263238" stroke-linecap="round" stroke-linejoin="round"/>
<path d="M347.438 157.027H247.478V214.683H347.438V157.027Z" fill="white"/>
<path d="M282.264 163.033H262.601C261.285 163.033 260.218 164.1 260.218 165.416V206.027C260.218 207.344 261.285 208.411 262.601 208.411H282.264C283.58 208.411 284.647 207.344 284.647 206.027V165.416C284.647 164.1 283.58 163.033 282.264 163.033Z" fill="#263238"/>
<path d="M282.601 166.835H262.272V204.593H282.601V166.835Z" fill="#F88F24"/>
<path d="M309.398 167.47H290.998V169.375H309.398V167.47Z" fill="#263238"/>
<path d="M299.888 171.602H291.319V180.485H299.888V171.602Z" fill="#F88F24"/>
<path d="M308.128 198.885H303.542V203.644H308.128V198.885Z" fill="#F88F24"/>
<path d="M308.983 186.827H291.531V195.71H308.983V186.827Z" fill="#F88F24"/>
<path d="M301.472 172.237H308.45" stroke="#263238" stroke-linecap="round" stroke-linejoin="round"/>
<path d="M301.472 174.456H308.45" stroke="#263238" stroke-linecap="round" stroke-linejoin="round"/>
<path d="M301.472 176.674H308.45" stroke="#263238" stroke-linecap="round" stroke-linejoin="round"/>
<path d="M301.472 178.893H308.45" stroke="#263238" stroke-linecap="round" stroke-linejoin="round"/>
<path d="M291.844 183.973H308.661" stroke="#263238" stroke-linecap="round" stroke-linejoin="round"/>
<path d="M291.844 197.936H308.661" stroke="#263238" stroke-linecap="round" stroke-linejoin="round"/>
<path d="M310.99 165.573H289.414V205.557H310.99V165.573Z" stroke="#263238" stroke-linecap="round" stroke-linejoin="round"/>
<path d="M337.324 165.573H317.019V180.485H337.324V165.573Z" fill="#BFBFBF"/>
<path d="M337.324 165.573H317.019V168.748H337.324V165.573Z" fill="#263238"/>
<path d="M323.902 171.053H318.594V176.188H323.902V171.053Z" stroke="#263238" stroke-linecap="round" stroke-linejoin="round"/>
<path d="M334.518 171.053H329.21V176.188H334.518V171.053Z" stroke="#263238" stroke-linecap="round" stroke-linejoin="round"/>
<path d="M335.372 167.376C335.372 167.531 335.326 167.683 335.24 167.812C335.154 167.941 335.031 168.041 334.888 168.1C334.745 168.16 334.587 168.175 334.435 168.145C334.283 168.115 334.143 168.04 334.034 167.931C333.924 167.821 333.85 167.681 333.819 167.529C333.789 167.377 333.805 167.219 333.864 167.076C333.923 166.933 334.024 166.81 334.153 166.724C334.282 166.638 334.433 166.592 334.588 166.592C334.796 166.592 334.996 166.675 335.143 166.822C335.29 166.969 335.372 167.168 335.372 167.376Z" fill="white"/>
<path d="M330.919 168.144C331.343 168.144 331.687 167.801 331.687 167.376C331.687 166.952 331.343 166.608 330.919 166.608C330.495 166.608 330.151 166.952 330.151 167.376C330.151 167.801 330.495 168.144 330.919 168.144Z" fill="white"/>
<path d="M335.701 188.568H320.155V199.991H335.701V188.568Z" fill="#BFBFBF"/>
<path d="M335.701 188.568H320.155V190.998H335.701V188.568Z" fill="#263238"/>
<path d="M334.212 189.947C334.213 190.066 334.18 190.182 334.115 190.281C334.051 190.38 333.958 190.457 333.85 190.504C333.741 190.55 333.621 190.563 333.505 190.541C333.389 190.519 333.282 190.462 333.198 190.379C333.113 190.296 333.056 190.19 333.032 190.074C333.009 189.959 333.02 189.838 333.065 189.729C333.11 189.62 333.186 189.526 333.284 189.46C333.382 189.395 333.498 189.36 333.616 189.359C333.773 189.359 333.923 189.421 334.035 189.531C334.146 189.641 334.21 189.791 334.212 189.947V189.947Z" fill="white"/>
<path d="M331.389 189.947C331.389 190.103 331.327 190.253 331.217 190.363C331.107 190.474 330.957 190.535 330.801 190.535C330.645 190.535 330.496 190.474 330.386 190.363C330.275 190.253 330.213 190.103 330.213 189.947C330.213 189.792 330.275 189.642 330.386 189.532C330.496 189.421 330.645 189.359 330.801 189.359C330.957 189.359 331.107 189.421 331.217 189.532C331.327 189.642 331.389 189.792 331.389 189.947V189.947Z" fill="white"/>
<path d="M257.301 160.054H250.771V211.272H257.301V160.054Z" fill="#BFBFBF"/>
<path d="M257.301 160.054H250.771V162.406H257.301V160.054Z" fill="#263238"/>
<path d="M255.475 163.974H252.339V167.635H255.475V163.974Z" stroke="#263238" stroke-linecap="round" stroke-linejoin="round"/>
<path d="M255.475 169.979H252.339V173.64H255.475V169.979Z" stroke="#263238" stroke-linecap="round" stroke-linejoin="round"/>
<path d="M255.475 175.992H252.339V179.654H255.475V175.992Z" stroke="#263238" stroke-linecap="round" stroke-linejoin="round"/>
<path d="M255.475 182.006H252.339V185.667H255.475V182.006Z" stroke="#263238" stroke-linecap="round" stroke-linejoin="round"/>
<path d="M255.475 188.011H252.339V191.672H255.475V188.011Z" stroke="#263238" stroke-linecap="round" stroke-linejoin="round"/>
<path d="M255.475 194.024H252.339V197.686H255.475V194.024Z" stroke="#263238" stroke-linecap="round" stroke-linejoin="round"/>
<path d="M255.475 200.038H252.339V203.699H255.475V200.038Z" stroke="#263238" stroke-linecap="round" stroke-linejoin="round"/>
<path d="M255.475 206.043H252.339V209.704H255.475V206.043Z" stroke="#263238" stroke-linecap="round" stroke-linejoin="round"/>
<path d="M344.592 159.528H261.488V161.622H344.592V159.528Z" fill="#BFBFBF"/>
<path d="M344.592 210.23H261.488V212.323H344.592V210.23Z" fill="#BFBFBF"/>
<path d="M315.443 249.61H279.489V251.248H315.443V249.61Z" fill="#263238" stroke="#263238" stroke-linecap="round" stroke-linejoin="round"/>
<path d="M338.947 248.269H255.475V251.248H338.947V248.269Z" fill="white" stroke="#263238" stroke-linecap="round" stroke-linejoin="round"/>
<path d="M180.673 364.56H177.278L175.577 260.547H182.374L180.673 364.56Z" fill="white" stroke="#263238" stroke-linecap="round" stroke-linejoin="round"/>
<path d="M180.673 364.56H179.176L179.38 260.547H182.375L180.673 364.56Z" fill="#263238" stroke="#263238" stroke-linecap="round" stroke-linejoin="round"/>
<path d="M229.07 364.56H225.675L223.974 260.547H230.771L229.07 364.56Z" fill="white" stroke="#263238" stroke-linecap="round" stroke-linejoin="round"/>
<path d="M229.07 364.56H227.572L227.776 260.547H230.771L229.07 364.56Z" fill="#263238" stroke="#263238" stroke-linecap="round" stroke-linejoin="round"/>
<path d="M211.743 364.56H208.341L206.647 260.547H213.437L211.743 364.56Z" fill="#263238" stroke="#263238" stroke-linecap="round" stroke-linejoin="round"/>
<path d="M211.743 364.56H210.246L210.442 260.547H213.437L211.743 364.56Z" fill="#263238" stroke="#263238" stroke-linecap="round" stroke-linejoin="round"/>
<path d="M244.444 364.56H241.041L239.348 260.547H246.137L244.444 364.56Z" fill="#263238" stroke="#263238" stroke-linecap="round" stroke-linejoin="round"/>
<path d="M244.444 364.56H242.938L243.142 260.547H246.137L244.444 364.56Z" fill="#263238" stroke="#263238" stroke-linecap="round" stroke-linejoin="round"/>
<path d="M246.992 262.138H193.696V327.21H246.992V262.138Z" fill="#263238" stroke="#263238" stroke-linecap="round" stroke-linejoin="round"/>
<path d="M232.276 262.138H178.98V327.21H232.276V262.138Z" fill="white" stroke="#263238" stroke-linecap="round" stroke-linejoin="round"/>
<path d="M339.919 364.56H336.525L334.823 260.547H341.621L339.919 364.56Z" fill="white" stroke="#263238" stroke-linecap="round" stroke-linejoin="round"/>
<path d="M339.919 364.56H338.422L338.626 260.547H341.621L339.919 364.56Z" fill="#263238" stroke="#263238" stroke-linecap="round" stroke-linejoin="round"/>
<path d="M370.989 364.56H367.587L365.893 260.547H372.683L370.989 364.56Z" fill="#263238" stroke="#263238" stroke-linecap="round" stroke-linejoin="round"/>
<path d="M370.989 364.56H369.492L369.688 260.547H372.683L370.989 364.56Z" fill="#263238" stroke="#263238" stroke-linecap="round" stroke-linejoin="round"/>
<path d="M374.831 256.627H171.101V263.785H374.831V256.627Z" fill="white" stroke="#263238" stroke-linecap="round" stroke-linejoin="round"/>
<path d="M374.831 256.627H171.101V260.202H374.831V256.627Z" fill="#263238" stroke="#263238" stroke-linecap="round" stroke-linejoin="round"/>
<path d="M374.831 256.627H344.757V263.785H374.831V256.627Z" fill="#263238" stroke="#263238" stroke-linecap="round" stroke-linejoin="round"/>
<path d="M381.416 250.88H165.573V258.038H381.416V250.88Z" fill="white" stroke="#263238" stroke-linecap="round" stroke-linejoin="round"/>
<path d="M381.417 250.88H351.342V258.038H381.417V250.88Z" fill="#263238" stroke="#263238" stroke-linecap="round" stroke-linejoin="round"/>
<path d="M229.015 268.387H182.367V291.123H229.015V268.387Z" fill="white" stroke="#263238" stroke-linecap="round" stroke-linejoin="round"/>
<path d="M210.787 277.403H200.595V280.931H210.787V277.403Z" fill="#263238" stroke="#263238" stroke-linecap="round" stroke-linejoin="round"/>
<path d="M229.015 297.003H182.367V319.739H229.015V297.003Z" fill="white" stroke="#263238" stroke-linecap="round" stroke-linejoin="round"/>
<path d="M210.787 306.019H200.595V309.547H210.787V306.019Z" fill="#263238" stroke="#263238" stroke-linecap="round" stroke-linejoin="round"/>
<path d="M300.821 303.776H314.761V275.741H300.821V303.776Z" fill="#263238"/>
<path d="M304.31 332.643H311.28V293.82H304.31V332.643Z" fill="#263238"/>
<path d="M310.629 329.656C310.629 329.656 316.486 336.305 331.538 338.617C339.488 339.84 347.767 341.361 354.949 345.164C359.566 347.61 368.763 352.965 368.763 359.08C368.77 359.978 368.557 360.864 368.141 361.661C367.726 362.457 367.122 363.139 366.381 363.648C365.641 364.156 364.787 364.475 363.895 364.576C363.002 364.678 362.099 364.559 361.263 364.229C360.427 363.9 359.685 363.371 359.102 362.688C358.519 362.005 358.112 361.189 357.917 360.312C357.723 359.436 357.746 358.524 357.986 357.659C358.226 356.793 358.674 356 359.292 355.348C355.532 349.691 349.702 345.736 343.055 344.333C331.609 341.84 323.252 342.859 307.148 332.149L310.629 329.656Z" fill="#263238"/>
<path d="M305.651 329.656C305.651 329.656 299.794 336.305 284.741 338.617C276.792 339.84 268.513 341.361 261.331 345.164C256.706 347.61 247.517 352.965 247.517 359.08C247.509 359.979 247.721 360.866 248.136 361.664C248.551 362.461 249.155 363.145 249.896 363.654C250.636 364.163 251.491 364.483 252.384 364.584C253.277 364.686 254.182 364.567 255.018 364.237C255.854 363.907 256.597 363.377 257.18 362.693C257.764 362.009 258.17 361.192 258.364 360.314C258.558 359.437 258.533 358.525 258.291 357.659C258.05 356.793 257.6 355.999 256.98 355.348C260.742 349.693 266.571 345.738 273.217 344.333C284.671 341.84 293.028 342.859 309.132 332.149L305.651 329.656Z" fill="#263238"/>
<path d="M305.416 364.56H310.676C310.962 364.56 311.194 364.328 311.194 364.042V354.791C311.194 354.506 310.962 354.274 310.676 354.274H305.416C305.13 354.274 304.898 354.506 304.898 354.791V364.042C304.898 364.328 305.13 364.56 305.416 364.56Z" fill="#263238"/>
<path d="M306.552 364.56H309.539V330.589H306.552V364.56Z" fill="#263238"/>
<path d="M341.55 194.793C339.81 204.073 338.761 213.471 338.414 222.907C338.187 230.182 338.069 236.415 337.959 241.911C337.63 258.994 337.442 268.465 334.753 271.013C334.408 271.248 332.181 272.62 327.524 273.012C326.223 273.122 322.083 273.177 316.454 273.208C298.602 273.153 279.841 273.004 279.543 273.004H278.454C278.407 273.004 278.367 273.091 278.328 273.13C267.603 273.067 264.843 273.004 264.647 273.004H263.558C261.308 274.957 262.648 277.465 264.608 277.481C266.074 277.481 291.625 277.708 309.1 277.708C312.189 277.708 315.098 277.708 317.677 277.708H329.484C338.634 277.708 346.215 277.646 348.3 277.473C354.768 276.94 357.669 274.753 357.975 274.502C362.287 270.676 362.451 262.279 362.851 242.005C362.953 236.517 363.079 230.292 363.298 223.048C363.651 213.572 364.725 204.137 366.513 194.824L341.55 194.793Z" fill="#263238"/>
<path d="M202.947 341.173L204.711 350.385C204.711 350.385 203.143 353.717 197.067 356.461C190.991 359.205 188.051 360.381 188.051 361.165C188.051 361.949 187.659 363.713 189.227 364.301C190.795 364.889 224.115 364.301 224.115 364.301C224.115 364.301 225.879 363.517 225.879 359.793C225.879 356.069 224.311 349.209 224.311 347.641C224.311 346.073 223.205 342.294 223.205 341.761C223.205 341.228 209.807 341.957 209.807 341.957C209.807 341.957 205.887 338.233 202.947 341.173Z" fill="white" stroke="#263238" stroke-linecap="round" stroke-linejoin="round"/>
<path d="M209.807 341.957C209.807 341.957 210.787 350.777 211.375 351.365C211.963 351.953 224.311 351.953 224.311 351.953" fill="white"/>
<path d="M209.807 341.957C209.807 341.957 210.787 350.777 211.375 351.365C211.963 351.953 224.311 351.953 224.311 351.953" stroke="#263238" stroke-linecap="round" stroke-linejoin="round"/>
<path d="M224.311 347.641L210.591 347.837" stroke="#263238" stroke-linecap="round" stroke-linejoin="round"/>
<path d="M188.051 362.733H225.487" stroke="#263238" stroke-linecap="round" stroke-linejoin="round"/>
<path d="M227.447 230.692C227.447 230.692 216.581 267.273 215.248 272.315C213.915 277.356 221.614 321.62 221.614 322.412C221.614 323.204 222.672 325.595 222.672 328.245C222.672 330.895 221.614 331.687 222.147 332.487C222.68 333.286 224.499 335.136 224.264 336.728C224.182 337.955 223.619 339.099 222.696 339.911C222.111 340.521 221.383 340.977 220.579 341.236H214.213C214.213 341.236 212.645 329.304 208.38 297.763C204.115 266.223 211.038 248.191 212.363 242.358C213.265 238.595 214.599 234.949 216.337 231.492L227.447 230.692Z" fill="#263238" stroke="#263238" stroke-linecap="round" stroke-linejoin="round"/>
<path d="M193.931 341.173L195.695 350.385C195.695 350.385 194.127 353.717 188.051 356.461C181.975 359.205 179.035 360.381 179.035 361.165C179.035 361.949 178.643 363.713 180.211 364.301C181.779 364.889 215.099 364.301 215.099 364.301C215.099 364.301 216.863 363.517 216.863 359.793C216.863 356.069 215.295 349.209 215.295 347.641C215.295 346.073 214.189 342.294 214.189 341.761C214.189 341.228 200.791 341.957 200.791 341.957C200.791 341.957 196.871 338.233 193.931 341.173Z" fill="white" stroke="#263238" stroke-linecap="round" stroke-linejoin="round"/>
<path d="M200.791 341.957C200.791 341.957 201.771 350.777 202.359 351.365C202.947 351.953 215.295 351.953 215.295 351.953" fill="white"/>
<path d="M200.791 341.957C200.791 341.957 201.771 350.777 202.359 351.365C202.947 351.953 215.295 351.953 215.295 351.953" stroke="#263238" stroke-linecap="round" stroke-linejoin="round"/>
<path d="M215.295 347.641L201.575 347.837" stroke="#263238" stroke-linecap="round" stroke-linejoin="round"/>
<path d="M179.035 362.733H216.471" stroke="#263238" stroke-linecap="round" stroke-linejoin="round"/>
<path d="M183.707 230.692C183.707 230.692 183.441 253.757 184.766 263.565C186.091 273.373 191.132 296.172 191.924 308.629C192.716 321.087 194.048 326.928 194.048 326.928C194.048 326.928 192.167 328.496 192.167 330.064C192.167 331.632 193.225 331.632 192.951 334.047C192.676 336.461 191.626 337.222 192.426 338.288C193.225 339.354 193.751 341.463 196.4 341.997C199.05 342.53 211.508 342.263 214.158 341.73C216.808 341.197 218.133 338.547 218.133 336.43C218.133 334.313 217.349 332.722 217.349 330.331C217.349 327.939 218.674 325.83 218.674 324.239C218.674 322.647 218.141 321.848 218.141 320.256C218.141 318.665 214.699 293.224 214.699 287.924C214.699 282.624 214.432 264.592 215.224 260.084C216.016 255.576 219.999 234.11 219.999 234.11L183.707 230.692Z" fill="#F88F24" stroke="#263238" stroke-linecap="round" stroke-linejoin="round"/>
<path d="M200.509 238.469C203.657 239.549 206.938 240.19 210.261 240.374C212.815 240.446 215.36 240.684 217.882 241.088L219.309 234.424L200.509 238.469Z" fill="#263238" stroke="#263238" stroke-linecap="round" stroke-linejoin="round"/>
<path d="M197.6 239.614C197.6 239.614 198.901 276.039 201.52 288.183C204.138 300.327 207.588 320.272 206.726 322.875C205.863 325.478 204.554 331.546 204.554 331.546C204.554 331.546 209.329 330.683 209.329 333.278C209.329 335.874 202.39 337.622 204.123 338.923C205.855 340.225 207.58 341.652 207.58 341.652" stroke="#263238" stroke-linecap="round" stroke-linejoin="round"/>
<path d="M213.005 332.706C213.005 332.706 198.611 335.058 202.696 335.842C206.78 336.626 214.566 335.646 214.958 334.674C215.35 333.702 214.174 332.51 213.005 332.706Z" fill="#263238" stroke="#263238" stroke-linecap="round" stroke-linejoin="round"/>
<path d="M149.47 80.8696L149.07 97.1455L164.421 97.0122L164.554 80.7363L149.47 80.8696Z" fill="#F88F24"/>
<path d="M166.938 110.905C166.938 110.905 163.629 107.596 162.171 104.554C160.713 101.512 158.604 99.6621 158.604 97.5453C158.604 95.4285 159.529 90.4893 159.129 88.545C158.729 86.6006 159.129 82.4611 160.454 82.4611C160.762 82.4611 161.065 82.5307 161.342 82.6648C161.619 82.7989 161.862 82.9939 162.053 83.2353C162.244 83.4767 162.378 83.7581 162.444 84.0585C162.511 84.3589 162.509 84.6705 162.438 84.9699C162.171 86.2949 163.222 90.9283 163.222 90.9283C163.222 90.9283 164.28 82.0613 164.413 81.5203C164.546 80.9794 166.397 80.9872 167.196 81.387C167.996 81.7869 168.913 81.6458 168.913 83.3706C168.913 85.0954 168.514 87.071 168.514 87.4709C168.514 87.8707 172.222 89.9875 172.355 91.5712C172.488 93.1549 172.089 96.9965 171.163 98.6272C170.531 99.6137 170.005 100.665 169.595 101.763C169.462 102.288 173.17 107.847 173.17 107.847L166.938 110.905Z" fill="white" stroke="#263238" stroke-linecap="round" stroke-linejoin="round"/>
<path d="M173.108 105.315L164.092 112.206C164.092 112.206 179.466 144.013 179.999 145.04C180.532 146.067 191.657 152.998 191.657 152.998L208.356 132.316C208.356 132.316 187.416 125.691 186.891 124.899C186.365 124.107 173.108 105.315 173.108 105.315Z" fill="#263238" stroke="#263238" stroke-linecap="round" stroke-linejoin="round"/>
<path d="M183.739 222.201L182.955 234.549C182.955 234.549 193.147 238.861 204.123 238.665C215.099 238.469 229.799 234.157 229.799 234.157L231.955 222.005C231.955 222.005 205.495 224.161 197.459 223.377C189.423 222.593 183.739 222.201 183.739 222.201Z" fill="white" stroke="#263238" stroke-linecap="round" stroke-linejoin="round"/>
<path d="M175.899 218.281L175.311 221.809C175.311 221.809 183.613 226.341 201.967 228.081C213.262 229.123 224.652 227.924 235.483 224.553L235.679 218.477C225.918 220.804 215.921 221.988 205.887 222.005C195.793 221.744 185.75 220.497 175.899 218.281Z" fill="#263238" stroke="#263238" stroke-linecap="round" stroke-linejoin="round"/>
<path d="M190.795 145.369C190.795 145.369 184.327 156.737 182.171 165.557C180.015 174.377 175.703 215.145 175.115 217.497C174.527 219.849 188.247 224.553 197.263 224.749C206.279 224.945 226.467 225.337 229.995 223.965C233.523 222.593 236.855 220.633 236.855 218.477C236.855 216.321 237.051 208.285 237.051 201.817C237.051 195.349 235.091 161.245 233.327 153.405C231.563 145.565 230.387 140.077 229.799 139.097C229.211 138.117 224.899 133.413 216.079 134.001C209.195 134.508 202.505 136.515 196.479 139.881C194.243 141.321 192.312 143.185 190.795 145.369V145.369Z" fill="#263238" stroke="#263238" stroke-linecap="round" stroke-linejoin="round"/>
<path d="M131.681 158.039C131.681 158.039 128.498 159.364 128.231 162.547C127.965 165.73 133.806 168.905 137.247 173.68C140.689 178.454 145.197 183.456 145.197 183.456L152.096 192.997L160.313 186.106L139.106 161.504C139.106 161.504 140.164 159.152 138.839 158.321C137.724 157.802 136.517 157.51 135.288 157.462C134.06 157.413 132.833 157.609 131.681 158.039V158.039Z" fill="white" stroke="#263238" stroke-linecap="round" stroke-linejoin="round"/>
<path d="M132.214 165.463L156.103 157.506C156.103 157.506 157.671 164.138 164.844 171.03C169.146 175.174 173.756 178.984 178.635 182.429L157.161 194.62L132.214 165.463Z" fill="white" stroke="#263238" stroke-linecap="round" stroke-linejoin="round"/>
<path d="M132.214 165.463C133.267 164.282 133.915 162.796 134.064 161.222C134.135 160.494 133.934 159.766 133.5 159.178C133.065 158.591 132.429 158.185 131.712 158.039L155.303 151.147C155.303 151.147 159.811 152.715 156.087 157.506L132.214 165.463Z" fill="white" stroke="#263238" stroke-linecap="round" stroke-linejoin="round"/>
<path d="M163.825 190.669C163.825 190.669 158.525 189.885 158.259 188.317C157.992 186.749 156.934 183.283 155.907 181.959C154.88 180.634 149.807 177.984 148.216 176.126C146.624 174.267 145.566 171.618 144.507 171.884C143.449 172.151 141.858 173.209 142.383 174.236C142.908 175.263 145.299 179.81 145.299 179.81L145.832 181.661C145.832 181.661 141.058 180.877 140.266 180.602C140.035 180.537 139.792 180.529 139.557 180.579C139.322 180.63 139.103 180.737 138.92 180.892C138.737 181.047 138.594 181.244 138.505 181.467C138.415 181.69 138.382 181.932 138.408 182.17C138.408 183.495 137.35 183.495 138.674 184.287C139.999 185.079 141.591 186.145 141.591 186.145C141.591 186.145 143.449 190.387 143.943 191.178C144.437 191.97 148.718 193.836 149.509 194.361C150.301 194.887 154.55 196.219 156.667 196.713C158.784 197.207 163.559 199.105 163.559 199.105L164.884 193.005L163.825 190.669Z" fill="white" stroke="#263238" stroke-linecap="round" stroke-linejoin="round"/>
<path d="M220.022 154.087C220.022 154.087 219.489 176.62 219.489 177.678C219.489 178.736 220.273 200.477 217.921 202.327C215.569 204.177 203.872 206.568 186.906 206.043C169.94 205.518 162.516 201.802 162.516 201.802L163.841 190.669L196.181 188.317C196.181 188.317 192.739 163.668 193.264 155.185C193.79 146.702 200.689 142.194 200.689 142.194" fill="#263238"/>
<path d="M220.022 154.087C220.022 154.087 219.489 176.62 219.489 177.678C219.489 178.736 220.273 200.477 217.921 202.327C215.569 204.177 203.872 206.568 186.906 206.043C169.94 205.518 162.516 201.802 162.516 201.802L163.841 190.669L196.181 188.317C196.181 188.317 192.739 163.668 193.264 155.185C193.79 146.702 200.689 142.194 200.689 142.194" stroke="#263238" stroke-linecap="round" stroke-linejoin="round"/>
<path d="M184.327 207.031C184.327 207.031 216.424 208.152 218.117 204.208C219.811 200.265 219.803 161.41 219.803 161.41" stroke="#707070" stroke-linecap="round" stroke-linejoin="round"/>
<path d="M198.439 146.765C198.439 146.765 191.673 154.087 192.802 163.66C193.931 173.233 196.189 188.278 196.189 188.278L183.794 189.007" stroke="#707070" stroke-linecap="round" stroke-linejoin="round"/>
<path d="M184.742 85.5501C184.742 85.5501 180.297 93.2411 181.152 94.2603C182.006 95.2795 181.324 97.169 181.324 97.169C181.324 97.169 176.879 100.587 177.224 101.779C177.569 102.971 181.144 106.224 181.144 106.224C181.144 106.224 181.826 115.452 182.712 116.306C183.598 117.161 189.376 118.18 190.552 118.353C191.201 118.433 191.835 118.607 192.433 118.87L195.844 137.318L214.981 120.07L211.908 111.869C211.908 111.869 210.199 100.893 210.34 95.8126C210.481 90.7323 201.622 84.5309 196.33 82.9942C191.038 81.4576 184.742 85.5501 184.742 85.5501Z" fill="white" stroke="#263238" stroke-linecap="round" stroke-linejoin="round"/>
<path d="M188.325 75.1229C188.325 75.1229 183.888 70.5129 178.588 74.1037C173.288 77.6944 174.833 83.5117 179.615 85.5501C184.397 87.5885 190.034 86.0597 188.161 88.1137C186.287 90.1678 185.809 94.6053 188.67 95.4598C191.532 96.3144 191.061 99.5601 191.061 100.948C191.061 102.335 193.413 102.147 193.97 100.948C194.527 99.7483 195.844 96.5104 199.09 97.8745C202.335 99.2387 202.171 106.757 200.971 108.639C199.772 110.52 198.58 110.348 198.58 110.348C198.58 110.348 200.462 111.03 199.262 113.249L198.07 115.475C198.07 115.475 200.799 118.721 207.635 117.522C214.472 116.322 216.008 113.249 214.981 110.693C213.954 108.137 211.563 107.784 214.127 104.029C216.69 100.274 223.017 95.8205 222.5 87.2827C222.163 81.6457 208.835 76.3067 208.835 76.3067C208.835 76.3067 211.908 71.1793 204.915 67.9336C197.921 64.6878 189.885 68.451 190.395 71.8536C190.905 75.2561 188.325 75.1229 188.325 75.1229Z" fill="#263238" stroke="#263238" stroke-linecap="round" stroke-linejoin="round"/>
<path d="M181.105 93.6488C181.105 93.6488 178.933 93.0686 178.753 94.0957C178.572 95.1227 178.753 100.242 178.753 100.242C179.517 100.718 180.427 100.901 181.316 100.76C182.516 100.415 181.826 96.1419 181.826 96.1419" stroke="#263238" stroke-linecap="round" stroke-linejoin="round"/>
<path d="M194.652 99.3877L178.917 96.7848L178.933 95.797L194.652 99.3877Z" fill="#263238" stroke="#263238" stroke-linecap="round" stroke-linejoin="round"/>
<path d="M217.208 114.77C217.208 114.77 208.489 121.089 202.508 127.58C196.526 134.072 189.352 141.253 189.031 143.472C188.709 145.691 189.368 149.109 192.786 145.518C196.204 141.927 202.523 137.153 207.313 136.808C212.104 136.463 219.442 138.862 223.197 139.372C226.953 139.881 229.352 140.94 230.716 138.862C232.08 136.784 228.497 132.198 228.497 129.799C228.497 127.4 229.007 123.307 227.298 120.391C225.589 117.475 220.108 113.915 217.208 114.77Z" fill="#757575" stroke="#263238" stroke-linecap="round" stroke-linejoin="round"/>
<path d="M228.372 123.229C227.887 124.889 227.224 126.493 226.396 128.012C225.4 129.493 211.39 132.3 211.39 132.3C211.39 132.3 222.931 131.641 225.071 131.641C227.212 131.641 229.689 133.617 229.689 133.617L228.536 130.481C228.536 130.481 229.015 124.719 228.372 123.229Z" fill="#263238" stroke="#263238" stroke-linecap="round" stroke-linejoin="round"/>
<path d="M25.1746 364.56H383.463" stroke="#263238" stroke-linecap="round" stroke-linejoin="round"/>
</svg>
